<svg xmlns="http://www.w3.org/2000/svg" xmlns:xlink="http://www.w3.org/1999/xlink" width="1920" zoomAndPan="magnify" viewBox="0 0 1440 809.999993" height="1080" preserveAspectRatio="xMidYMid meet" version="1.0"><defs><clipPath id="588d125074"><path d="M 56.628906 303.113281 L 261 303.113281 L 261 507.113281 L 56.628906 507.113281 Z M 56.628906 303.113281 " clip-rule="nonzero"/></clipPath></defs><g clip-path="url(#588d125074)"><path fill="#c5a156" d="M 178.472656 304.777344 L 179.984375 305.09375 C 192.089844 307.730469 203.550781 312.363281 213.910156 319.191406 L 214.949219 319.875 C 219.246094 322.734375 223.117188 325.910156 226.855469 329.464844 C 228.007812 330.550781 229.195312 331.59375 230.417969 332.597656 C 241.246094 341.769531 249.273438 356.277344 254.308594 369.351562 C 260.484375 386.574219 262.078125 404.972656 259.035156 423.003906 C 255.695312 441.371094 247.523438 457.960938 235.503906 472.191406 C 234.261719 473.535156 232.972656 474.828125 231.628906 476.070312 L 228.859375 478.839844 L 228.015625 479.765625 C 217.550781 490.882812 202.429688 498.609375 188.027344 503.082031 C 170.503906 508.234375 152.050781 508.589844 134.269531 504.511719 C 128.90625 503.207031 123.75 501.507812 118.667969 499.351562 L 117.542969 498.878906 C 107.910156 494.757812 99.304688 489.1875 91.539062 482.167969 C 90.753906 481.496094 89.96875 480.828125 89.183594 480.160156 C 76.808594 469.164062 67.070312 454.324219 61.796875 438.628906 C 60.757812 435.382812 59.828125 432.109375 58.972656 428.8125 L 58.644531 427.566406 C 56.851562 420.222656 56.441406 412.777344 56.480469 405.253906 L 56.484375 404.007812 C 56.515625 397.417969 56.871094 391.046875 58.316406 384.601562 L 58.648438 383.078125 C 60.355469 375.476562 62.714844 368.351562 66.066406 361.320312 L 66.644531 360.105469 C 74.613281 343.609375 87.105469 329.964844 102.164062 319.707031 C 124.40625 305.035156 152.277344 299.304688 178.472656 304.777344 M 109.585938 329.085938 C 104.652344 332.425781 100.21875 336.085938 95.96875 340.253906 C 95.40625 340.789062 94.84375 341.324219 94.277344 341.859375 C 85.03125 350.75 78.4375 361.578125 73.820312 373.515625 L 73.046875 375.503906 C 67.757812 390.242188 66.878906 406.550781 69.640625 421.902344 C 72.625 436.828125 79.128906 451.292969 89.132812 462.835938 C 90.382812 464.230469 91.660156 465.597656 92.964844 466.9375 C 93.757812 467.765625 94.542969 468.597656 95.324219 469.433594 C 105.160156 479.792969 118.128906 487.328125 131.757812 491.457031 C 140.109375 493.859375 148.078125 495.117188 156.765625 495.09375 C 158.074219 495.089844 159.386719 495.105469 160.695312 495.117188 C 168.632812 495.152344 176.417969 494.152344 184.007812 491.765625 L 185.386719 491.339844 C 200.371094 486.546875 213.703125 477.859375 224.652344 466.589844 C 234.585938 455.464844 241.71875 442.570312 245.710938 428.1875 L 246.105469 426.773438 C 247.945312 419.695312 248.453125 412.542969 248.410156 405.253906 L 248.410156 404.082031 C 248.378906 397.835938 248.039062 391.804688 246.578125 385.710938 L 246.246094 384.308594 C 243.179688 371.839844 237.847656 360.394531 229.964844 350.234375 L 228.832031 348.753906 C 218.898438 336.175781 206.007812 326.921875 191.207031 320.851562 C 187.757812 319.523438 184.253906 318.476562 180.6875 317.527344 L 179.441406 317.171875 C 156.304688 310.804688 129.410156 316.050781 109.585938 329.085938 " fill-opacity="1" fill-rule="nonzero"/></g><path fill="#ddc496" d="M 1053.582031 346.683594 C 1060.574219 350.246094 1066.246094 355.097656 1071.613281 360.765625 L 1072.722656 361.875 C 1075.707031 358.621094 1078.558594 355.320312 1081.234375 351.804688 L 1082.136719 350.789062 L 1083.242188 350.789062 C 1082.507812 352.359375 1081.675781 353.691406 1080.613281 355.0625 L 1079.730469 356.21875 C 1079.121094 357.007812 1078.507812 357.796875 1077.894531 358.585938 C 1075.648438 361.371094 1075.648438 361.371094 1074.382812 364.644531 C 1074.964844 366.007812 1074.964844 366.007812 1076.011719 367.3125 C 1081.167969 374.894531 1084.074219 383.796875 1084.902344 392.917969 C 1085.453125 403.492188 1083.707031 413.667969 1079.007812 423.226562 C 1074.304688 432.328125 1067.328125 439.84375 1058.878906 445.582031 C 1049.9375 451.238281 1040.191406 453.789062 1029.726562 454.609375 C 1019.589844 454.878906 1009.621094 452.433594 1000.644531 447.785156 C 995.277344 444.859375 990.65625 441.03125 986.34375 436.710938 C 983.730469 436.910156 981.4375 437.566406 978.972656 438.410156 C 975.777344 439.339844 972.847656 439.722656 969.523438 439.761719 L 968.289062 439.789062 C 965.597656 439.761719 963.652344 439.152344 961.28125 437.886719 C 959.507812 436.742188 958.660156 435.78125 957.550781 433.941406 C 957.035156 432.15625 957.144531 430.753906 957.550781 428.949219 C 959.707031 423.082031 963.242188 418.46875 967.515625 413.984375 C 968.402344 413.265625 969.292969 412.550781 970.179688 411.835938 C 971.300781 410.855469 971.300781 410.855469 971.945312 409.546875 C 971.972656 407.421875 971.660156 405.449219 971.246094 403.375 C 969.722656 395.355469 971.238281 386.738281 973.859375 379.09375 C 977.613281 368.851562 983.847656 360.273438 992.03125 353.09375 C 999.667969 347.027344 1008.929688 342.984375 1018.492188 341.226562 C 1030.882812 339.5625 1042.3125 341.445312 1053.582031 346.683594 M 1024.546875 352.449219 L 1024.546875 354.113281 L 1029.53125 355.222656 L 1031.746094 352.449219 Z M 1045.589844 355.777344 C 1042.699219 358.542969 1042.699219 358.542969 1040.722656 361.941406 C 1040.527344 363.082031 1040.527344 363.082031 1040.605469 364.644531 L 1041.160156 365.199219 C 1042.75 365.523438 1042.75 365.523438 1044.484375 365.199219 C 1045.230469 364.097656 1045.96875 362.988281 1046.699219 361.875 C 1048.109375 360.972656 1049.582031 360.296875 1051.128906 359.65625 C 1051.78125 360.964844 1052.355469 362.152344 1052.789062 363.539062 C 1052.648438 365.269531 1052.648438 365.269531 1052.234375 366.863281 L 1051.921875 368.457031 L 1051.679688 369.636719 L 1048.914062 370.191406 L 1049.464844 372.960938 L 1048.03125 373.855469 L 1046.179688 375.039062 L 1044.328125 376.210938 C 1042.785156 377.230469 1042.785156 377.230469 1042.320312 378.539062 C 1042.246094 380.058594 1042.519531 381.457031 1042.820312 382.941406 C 1041.773438 382.804688 1041.773438 382.804688 1040.605469 382.386719 C 1039.804688 380.964844 1039.441406 379.515625 1038.945312 377.949219 L 1032.300781 377.949219 L 1031.746094 379.058594 L 1029.914062 379.234375 L 1027.871094 379.613281 C 1026.421875 380.78125 1026.421875 380.78125 1025.65625 382.386719 C 1025.820312 383.730469 1025.820312 383.730469 1026.210938 385.15625 L 1026.511719 386.523438 C 1027.097656 388.785156 1027.707031 390.828125 1029.222656 392.640625 C 1030.753906 393.9375 1032.351562 394.605469 1034.273438 395.171875 C 1036.03125 395.46875 1036.03125 395.46875 1037.839844 395.136719 C 1040.257812 393.65625 1042.195312 391.871094 1044.195312 389.871094 C 1045.410156 388.664062 1046.695312 387.539062 1047.976562 386.402344 L 1049.316406 385.1875 C 1050.496094 384.125 1051.6875 383.074219 1052.890625 382.039062 C 1054.636719 380.519531 1056.265625 378.917969 1057.882812 377.265625 C 1059.304688 375.871094 1060.832031 374.601562 1062.367188 373.335938 C 1063.363281 372.355469 1063.867188 371.464844 1064.417969 370.191406 C 1059.011719 363.894531 1053.445312 358.855469 1045.589844 355.777344 M 997.96875 362.984375 C 991.523438 368.601562 986.875 376.132812 984.054688 384.171875 C 981.894531 391.800781 981.578125 400.15625 983.402344 407.886719 C 984.84375 413.558594 987.230469 419.253906 990.773438 423.960938 L 992.433594 424.515625 C 993.800781 424 993.800781 424 995.277344 423.164062 L 997.023438 422.226562 L 998.90625 421.191406 L 1000.828125 420.136719 C 1005.402344 417.613281 1009.917969 414.984375 1014.375 412.25 L 1016.125 411.199219 L 1017.71875 410.203125 L 1019.128906 409.332031 L 1020.117188 408.441406 L 1020.117188 404.003906 C 1021.011719 402.691406 1021.011719 402.691406 1022.195312 401.300781 C 1023.859375 399.304688 1025.378906 397.332031 1026.761719 395.136719 C 1026.097656 393.65625 1025.546875 392.507812 1024.546875 391.253906 C 1023.019531 390.582031 1021.746094 390.136719 1020.152344 389.730469 C 1015.042969 388.210938 1011.703125 385.515625 1007.9375 381.832031 L 1006.828125 382.386719 L 1008.492188 386.820312 C 1007.242188 386.726562 1007.242188 386.726562 1005.722656 386.265625 C 1003.839844 384.210938 1002.507812 381.773438 1001.847656 379.058594 C 1001.75 376.664062 1002.027344 374.304688 1002.277344 371.925781 C 1002.472656 369.640625 1002.539062 368.292969 1001.609375 366.152344 C 1000.648438 364.933594 999.757812 363.921875 998.523438 362.984375 Z M 1065.523438 373.515625 C 1064.527344 374.351562 1064.527344 374.351562 1063.480469 375.457031 L 1062.402344 376.546875 C 1061.390625 377.640625 1060.402344 378.753906 1059.4375 379.894531 C 1056.574219 383.1875 1053.433594 386.214844 1050.332031 389.28125 C 1049.117188 390.480469 1047.910156 391.679688 1046.699219 392.882812 L 1045.855469 393.710938 C 1045.203125 394.363281 1044.5625 395.023438 1043.929688 395.691406 L 1043.929688 396.242188 L 1045.832031 396.492188 C 1046.675781 396.617188 1047.515625 396.742188 1048.359375 396.867188 L 1049.605469 397.023438 C 1051.914062 397.382812 1053.808594 397.996094 1055.796875 399.242188 C 1057.082031 400.304688 1057.695312 401.046875 1058.320312 402.597656 C 1058.679688 404.253906 1058.839844 405.8125 1058.914062 407.503906 L 1058.996094 409.289062 C 1058.953125 411.816406 1058.75 413.796875 1057.480469 416.015625 C 1055.355469 418.691406 1052.839844 420.875 1050.160156 422.980469 C 1048.53125 424.261719 1046.980469 425.613281 1045.433594 426.992188 C 1044.695312 427.648438 1043.941406 428.289062 1043.179688 428.917969 C 1041.84375 430.59375 1041.453125 432.445312 1040.988281 434.492188 L 1040.683594 435.6875 C 1040.296875 437.304688 1040.011719 438.660156 1040.269531 440.316406 L 1040.605469 441.144531 C 1048.191406 438.488281 1054.214844 435.121094 1059.988281 429.503906 L 1061.054688 428.539062 C 1065.71875 424.203125 1069.171875 418.050781 1071.148438 412.027344 C 1073.546875 403.828125 1074.351562 395.375 1072.445312 386.957031 C 1071.261719 382.136719 1069.023438 377.835938 1066.632812 373.515625 Z M 1025.101562 411.210938 C 1023.863281 412.113281 1022.640625 413.035156 1021.433594 413.984375 C 1017.523438 416.980469 1013.492188 419.773438 1009.390625 422.507812 L 1007.71875 423.625 C 1004.339844 425.863281 1000.90625 428.007812 997.417969 430.058594 C 998.363281 432.117188 999.347656 433.078125 1001.1875 434.425781 C 1007.441406 438.808594 1015.109375 442.0625 1022.78125 442.761719 C 1026.921875 442.925781 1030.984375 443.039062 1035.070312 442.253906 L 1034.339844 440.433594 C 1031.742188 433.65625 1030.222656 426.90625 1029 419.777344 L 1028.625 417.621094 C 1028.519531 416.988281 1028.410156 416.351562 1028.304688 415.699219 C 1027.855469 413.925781 1027.292969 412.683594 1026.210938 411.210938 Z M 972.5 412.875 C 969.289062 416.53125 966.605469 420.414062 964.402344 424.757812 L 963.828125 425.867188 C 962.984375 427.597656 962.53125 428.945312 962.414062 430.875 L 962.53125 432.277344 C 964.207031 433.234375 965.484375 433.578125 967.414062 433.628906 C 970.214844 433.582031 972.632812 432.976562 975.269531 432.105469 L 976.351562 431.746094 C 977.832031 431.222656 979.019531 430.71875 980.214844 429.6875 L 980.804688 428.949219 L 979.953125 427.546875 C 977.140625 422.8125 974.960938 418.035156 973.054688 412.875 Z M 972.5 412.875 " fill-opacity="1" fill-rule="nonzero"/><path fill="#c5a156" d="M 185.117188 329.722656 L 186.261719 330.136719 C 195.0625 333.390625 203.011719 337.871094 210.03125 344.136719 L 211.4375 345.339844 C 214.945312 348.402344 218.042969 351.726562 221.105469 355.222656 L 220.554688 356.886719 C 219.316406 357.875 218.046875 358.824219 216.746094 359.726562 L 215.675781 360.492188 C 214.179688 361.542969 212.882812 362.402344 211.140625 362.984375 L 210.488281 362.207031 C 205.695312 356.613281 200.707031 352 194.527344 348.015625 L 193.171875 347.101562 C 184.316406 341.40625 174.316406 339.191406 164.074219 337.484375 L 164.628906 452.789062 L 152.445312 452.789062 L 152.445312 337.484375 C 137 340.578125 124.929688 344.515625 113.097656 354.839844 C 103.941406 363.339844 97.5625 373.339844 93.789062 385.300781 C 92.863281 388.550781 92.132812 391.8125 91.539062 395.136719 L 91.316406 396.378906 C 89.726562 407.585938 91.597656 418.953125 95.414062 429.503906 L 96.097656 431.429688 C 100.300781 442.210938 107.945312 451.5 116.90625 458.695312 C 126.503906 465.757812 137.808594 470.726562 149.679688 472.191406 C 152.066406 472.300781 154.457031 472.316406 156.847656 472.324219 C 157.964844 472.328125 159.082031 472.34375 160.199219 472.363281 C 167.105469 472.390625 173.617188 471.265625 180.167969 469.003906 L 181.425781 468.570312 C 190.703125 465.296875 198.511719 460.132812 205.601562 453.339844 L 206.734375 452.316406 C 210.710938 448.582031 213.667969 444.003906 216.675781 439.484375 C 219.238281 440.253906 221.464844 441.308594 223.804688 442.601562 L 225.738281 443.664062 L 227.199219 444.472656 C 226.433594 448.859375 222.730469 452.789062 219.953125 456.15625 C 218.699219 457.640625 217.414062 459.097656 216.125 460.546875 L 215.082031 461.734375 C 206 471.441406 193.667969 478.019531 181.125 482 C 167.644531 485.972656 153.128906 486.183594 139.480469 482.960938 C 126.550781 479.738281 115.496094 473.570312 105.378906 464.984375 L 104.273438 464.085938 C 101.769531 462.023438 99.679688 459.730469 97.628906 457.222656 L 96.347656 455.667969 C 86.992188 444.054688 81.445312 430.710938 79.054688 416.011719 C 77.890625 406.660156 78.023438 395.921875 80.464844 386.820312 L 80.796875 385.515625 C 84.082031 372.875 89.859375 362.457031 98.183594 352.449219 L 99.347656 350.914062 L 100.398438 349.679688 L 101.503906 349.679688 L 101.863281 348.746094 C 102.867188 347.023438 104.246094 345.878906 105.761719 344.621094 L 106.726562 343.816406 C 118.324219 334.320312 131.632812 328.464844 146.355469 325.839844 C 159.339844 323.785156 172.8125 325.214844 185.117188 329.722656 M 690.65625 343.027344 C 700.117188 342.316406 700.117188 342.316406 704.5 343.027344 C 706.566406 344.246094 707.308594 345.246094 708.523438 347.292969 L 709.484375 349.125 C 710.109375 350.023438 710.746094 350.910156 711.390625 351.792969 C 712.101562 352.757812 712.792969 353.734375 713.480469 354.714844 C 715.207031 357.160156 716.980469 359.570312 718.757812 361.980469 L 719.753906 363.324219 L 722.773438 367.417969 C 726.605469 372.609375 730.429688 377.804688 734.195312 383.042969 C 736.441406 386.175781 738.726562 389.28125 741.046875 392.363281 C 743.679688 395.855469 746.25 399.390625 748.800781 402.941406 C 752.265625 407.761719 755.792969 412.535156 759.320312 417.308594 L 763.609375 423.128906 L 764.609375 424.484375 L 765.539062 425.746094 L 766.355469 426.851562 C 766.984375 427.722656 767.585938 428.613281 768.179688 429.503906 L 768.730469 343.027344 L 779.804688 343.582031 L 779.804688 451.679688 L 769.839844 451.679688 C 767.664062 449.898438 766.84375 449.050781 765.515625 446.757812 L 764.507812 445.238281 C 763.828125 444.207031 763.15625 443.164062 762.5 442.113281 C 761.042969 439.820312 759.4375 437.652344 757.832031 435.464844 C 757.238281 434.640625 756.648438 433.820312 756.058594 432.996094 C 754.140625 430.332031 752.167969 427.710938 750.191406 425.089844 C 747.808594 421.921875 745.492188 418.707031 743.179688 415.484375 C 741.207031 412.746094 739.203125 410.027344 737.171875 407.332031 C 734.824219 404.21875 732.519531 401.074219 730.25 397.90625 C 727.988281 394.75 725.691406 391.621094 723.363281 388.519531 C 720.910156 385.261719 718.476562 381.992188 716.058594 378.710938 L 715.15625 377.492188 C 712.300781 373.609375 709.515625 369.679688 706.714844 365.753906 L 706.164062 451.679688 L 694.535156 451.679688 L 694.535156 354.667969 L 690.65625 354.667969 Z M 594.867188 343.027344 C 596.355469 342.980469 597.832031 342.96875 599.320312 342.980469 L 600.738281 342.984375 C 602.292969 342.992188 603.851562 343.003906 605.40625 343.015625 L 607.023438 343.027344 C 609.851562 343.046875 612.675781 343.074219 615.503906 343.101562 C 618.410156 343.128906 621.3125 343.140625 624.214844 343.152344 C 626.460938 343.164062 628.707031 343.1875 630.953125 343.207031 C 632.019531 343.21875 633.089844 343.226562 634.15625 343.226562 C 642.957031 343.25 650.511719 344.355469 658.382812 348.554688 C 663.441406 351.679688 666.890625 355.5625 669.84375 360.699219 C 672.523438 365.960938 673.113281 371.035156 673.054688 376.90625 C 672.789062 381.832031 671.429688 386.074219 668.949219 390.332031 C 665.328125 395.714844 660.902344 399.519531 655.183594 402.480469 C 651.894531 404.066406 648.980469 405.339844 645.253906 405.113281 L 646.472656 406.316406 C 652.699219 412.613281 657.203125 419.753906 661.890625 427.238281 C 663.492188 429.773438 665.144531 432.273438 666.8125 434.769531 L 667.65625 436.035156 C 668.804688 437.847656 668.804688 437.847656 670.171875 439.484375 C 671.570312 439.613281 672.957031 439.714844 674.359375 439.796875 L 678.476562 440.039062 L 678.476562 451.679688 C 668.464844 451.976562 668.464844 451.976562 665.671875 450.847656 C 660.746094 447.921875 657.78125 443.289062 654.839844 438.511719 L 652.515625 434.808594 L 651.355469 432.953125 C 649.71875 430.339844 648.042969 427.753906 646.359375 425.175781 L 645.464844 423.800781 C 644.910156 422.949219 644.351562 422.09375 643.796875 421.242188 C 643.109375 420.1875 642.425781 419.132812 641.746094 418.074219 C 638.089844 412.3125 638.089844 412.3125 633.003906 407.921875 C 625.886719 405.285156 617.554688 406.441406 610.371094 406.222656 L 610.371094 451.679688 L 598.742188 451.679688 L 598.742188 354.667969 L 594.3125 354.667969 C 594.296875 352.832031 594.285156 350.996094 594.277344 349.160156 L 594.261719 347.570312 L 594.257812 346.058594 L 594.25 344.660156 L 594.3125 343.582031 Z M 610.921875 354.667969 L 610.371094 355.222656 C 610.316406 356.445312 610.304688 357.671875 610.304688 358.898438 L 610.304688 360.0625 C 610.304688 361.335938 610.3125 362.613281 610.316406 363.886719 L 610.316406 366.53125 C 610.320312 368.855469 610.324219 371.179688 610.332031 373.503906 C 610.335938 375.875 610.339844 378.246094 610.34375 380.617188 C 610.347656 385.273438 610.355469 389.925781 610.371094 394.582031 C 614.652344 394.625 618.9375 394.652344 623.222656 394.671875 C 624.675781 394.679688 626.132812 394.691406 627.585938 394.707031 C 629.6875 394.726562 631.789062 394.734375 633.890625 394.742188 C 634.53125 394.75 635.171875 394.761719 635.835938 394.769531 C 641.21875 394.769531 646.484375 394.132812 651.308594 391.601562 C 654.992188 389.320312 657.382812 386.984375 659.507812 383.199219 C 661.210938 379.851562 661.566406 376.738281 661.476562 373.027344 C 661.136719 369.484375 660.082031 366.640625 658.074219 363.703125 C 655.097656 360.085938 651.804688 358.027344 647.46875 356.332031 C 642.285156 354.507812 636.59375 354.582031 631.167969 354.59375 L 629.40625 354.59375 C 628.191406 354.59375 626.976562 354.59375 625.757812 354.597656 C 623.890625 354.597656 622.019531 354.597656 620.148438 354.59375 C 618.964844 354.59375 617.78125 354.59375 616.597656 354.59375 L 614.898438 354.589844 L 613.335938 354.597656 L 611.960938 354.597656 Z M 610.921875 354.667969 " fill-opacity="1" fill-rule="nonzero"/><path fill="#ddc496" d="M 1197.863281 343.582031 C 1204.132812 343.53125 1210.40625 343.488281 1216.679688 343.464844 C 1219.59375 343.453125 1222.507812 343.4375 1225.417969 343.414062 C 1228.238281 343.390625 1231.054688 343.375 1233.875 343.371094 C 1234.941406 343.367188 1236.011719 343.359375 1237.078125 343.347656 C 1245.636719 343.253906 1253.421875 343.996094 1261.125 348.144531 C 1263.765625 349.84375 1265.984375 351.882812 1268.183594 354.113281 L 1269.148438 355.0625 C 1272.234375 358.34375 1274.304688 362.445312 1275.425781 366.792969 C 1276.769531 372.742188 1276.777344 378.285156 1275 384.152344 C 1273.0625 389.4375 1270.09375 394.0625 1265.96875 397.90625 C 1261.820312 401.085938 1256.878906 403.859375 1251.707031 404.851562 C 1250.558594 404.984375 1249.402344 405.054688 1248.25 405.113281 L 1248.25 406.222656 L 1249.234375 406.667969 C 1257.515625 411.128906 1263 423.726562 1267.796875 431.285156 L 1268.855469 432.929688 C 1269.496094 433.9375 1270.109375 434.960938 1270.695312 436 C 1271.449219 437.285156 1272.148438 438.402344 1273.167969 439.484375 C 1275.277344 440.175781 1275.277344 440.175781 1277.492188 440.039062 C 1278.234375 440.035156 1278.976562 440.035156 1279.71875 440.039062 L 1281.472656 440.039062 L 1282.027344 440.589844 C 1282.074219 441.417969 1282.085938 442.246094 1282.082031 443.070312 L 1282.074219 444.582031 L 1282.0625 446.167969 L 1282.054688 447.765625 C 1282.046875 449.070312 1282.039062 450.375 1282.027344 451.679688 C 1280.457031 451.722656 1278.890625 451.757812 1277.320312 451.78125 L 1275.992188 451.824219 C 1272.90625 451.863281 1270.351562 451.535156 1267.628906 450.015625 C 1264.132812 447.582031 1261.914062 444.53125 1259.707031 440.9375 L 1257.828125 437.96875 L 1256.898438 436.476562 C 1255.585938 434.382812 1254.234375 432.308594 1252.886719 430.230469 C 1251.367188 427.886719 1249.855469 425.535156 1248.355469 423.175781 C 1243.496094 414.515625 1243.496094 414.515625 1236.449219 408.058594 C 1233.542969 407.023438 1231.0625 406.675781 1227.980469 406.601562 L 1226.757812 406.566406 C 1225.480469 406.53125 1224.199219 406.496094 1222.917969 406.464844 L 1220.304688 406.390625 C 1218.175781 406.332031 1216.046875 406.277344 1213.917969 406.222656 L 1213.921875 407.921875 C 1213.933594 413.199219 1213.941406 418.480469 1213.949219 423.757812 C 1213.949219 426.46875 1213.957031 429.183594 1213.960938 431.898438 C 1213.96875 434.515625 1213.96875 437.132812 1213.972656 439.746094 C 1213.972656 440.75 1213.976562 441.75 1213.976562 442.75 C 1213.980469 444.148438 1213.984375 445.542969 1213.984375 446.941406 L 1213.988281 448.207031 C 1213.988281 449.179688 1213.957031 450.152344 1213.917969 451.125 L 1213.367188 451.679688 L 1202.292969 451.679688 L 1201.738281 355.222656 L 1197.863281 354.667969 Z M 1213.917969 354.667969 L 1213.917969 394.582031 L 1229.007812 394.683594 L 1233.730469 394.730469 C 1234.984375 394.734375 1236.242188 394.738281 1237.496094 394.742188 L 1239.421875 394.769531 C 1245.238281 394.769531 1250.671875 393.769531 1255.828125 390.976562 C 1258.605469 389.179688 1260.699219 387.105469 1262.410156 384.265625 C 1264.054688 380.929688 1264.953125 377.800781 1264.863281 374.070312 C 1264.589844 370.109375 1263.546875 366.980469 1261.367188 363.660156 C 1258.933594 360.460938 1255.996094 358.601562 1252.386719 356.902344 C 1246.742188 354.546875 1240.601562 354.582031 1234.574219 354.613281 L 1232.976562 354.613281 C 1231.03125 354.617188 1229.085938 354.625 1227.140625 354.632812 Z M 1358.640625 345.472656 C 1362.269531 347.199219 1365.351562 349.300781 1368.40625 351.894531 L 1370.195312 353.078125 L 1371.730469 354.667969 C 1372.128906 356.410156 1372.046875 358.054688 1371.9375 359.832031 L 1371.890625 361.234375 C 1371.851562 362.371094 1371.792969 363.507812 1371.730469 364.644531 C 1369.894531 364.664062 1368.058594 364.671875 1366.226562 364.679688 L 1364.640625 364.695312 L 1363.132812 364.699219 L 1361.734375 364.710938 L 1360.652344 364.644531 L 1360.101562 364.089844 L 1360.238281 362.53125 L 1360.101562 360.765625 C 1356.15625 357.050781 1350.609375 355.179688 1345.445312 353.859375 C 1337.601562 352.175781 1329.253906 352.3125 1321.542969 354.554688 C 1317.6875 355.933594 1314.609375 357.605469 1311.925781 360.765625 L 1310.925781 361.945312 C 1309.875 364.488281 1309.921875 366.925781 1310.265625 369.636719 C 1311.183594 372.425781 1312.765625 374.648438 1314.695312 376.839844 C 1322.941406 383.183594 1332.941406 386.847656 1342.496094 390.6875 C 1347.402344 392.671875 1352.125 394.835938 1356.777344 397.351562 L 1358.554688 398.273438 C 1364.261719 401.375 1369.265625 405.746094 1373.132812 410.992188 C 1375.417969 414.738281 1377.269531 419.0625 1377.398438 423.496094 C 1377.601562 432.453125 1377.601562 432.453125 1375.8125 436.480469 C 1373.015625 441.386719 1369.367188 444.917969 1364.53125 447.796875 C 1356.910156 451.933594 1348.277344 454.167969 1339.613281 454.449219 L 1337.671875 454.515625 C 1325.882812 454.722656 1314.539062 451.71875 1304.140625 446.1875 C 1300.058594 443.882812 1296.355469 441.210938 1293.101562 437.820312 L 1292.546875 437.265625 C 1292.507812 435.683594 1292.496094 434.101562 1292.511719 432.519531 L 1292.546875 427.839844 L 1303.621094 427.839844 L 1304.175781 431.722656 C 1307.605469 435.625 1314.632812 437.960938 1319.507812 439.628906 C 1321.402344 440.1875 1323.296875 440.6875 1325.214844 441.144531 L 1326.742188 441.523438 C 1335.214844 443.359375 1344.785156 442.5 1353.027344 439.898438 C 1356.859375 438.550781 1360.148438 436.824219 1363.046875 433.941406 C 1364.445312 432.269531 1365.070312 431.078125 1365.636719 428.949219 C 1366.027344 425.59375 1365.359375 423.023438 1364.109375 419.894531 C 1362.167969 415.726562 1359.320312 412.992188 1355.601562 410.328125 C 1347.851562 405.316406 1338.914062 402.101562 1330.40625 398.613281 C 1309.386719 389.988281 1309.386719 389.988281 1302.515625 381.277344 C 1300.214844 377.585938 1298.25 373.730469 1297.953125 369.355469 C 1297.824219 364.652344 1298.011719 360.570312 1300.300781 356.332031 C 1301.457031 354.523438 1302.726562 352.921875 1304.175781 351.339844 L 1304.976562 350.449219 C 1309.25 346.28125 1315.65625 343.734375 1321.339844 342.230469 C 1333.75 339.136719 1346.917969 340.539062 1358.640625 345.472656 " fill-opacity="1" fill-rule="nonzero"/><path fill="#c5a156" d="M 504.609375 343.027344 L 577.144531 343.582031 L 577.144531 359.101562 L 565.519531 359.101562 L 565.519531 354.667969 L 520.667969 355.222656 L 520.113281 394.582031 L 548.351562 394.582031 L 548.351562 406.222656 L 520.113281 406.222656 L 520.113281 440.039062 L 571.054688 440.039062 L 571.054688 436.15625 L 582.683594 436.15625 L 582.683594 451.679688 L 508.484375 451.679688 L 508.484375 354.667969 L 504.609375 354.667969 Z M 836.285156 340.808594 L 844.589844 340.808594 C 846.628906 345.15625 848.375 349.527344 849.988281 354.042969 C 850.527344 355.527344 851.066406 357.011719 851.605469 358.496094 L 852.042969 359.699219 C 853.957031 364.945312 855.9375 370.164062 857.914062 375.386719 L 860.355469 381.84375 L 860.980469 383.492188 C 863.28125 389.589844 865.570312 395.6875 867.847656 401.789062 C 871.769531 412.269531 875.710938 422.746094 879.667969 433.214844 L 881.246094 437.398438 C 881.910156 439.160156 882.578125 440.917969 883.25 442.675781 L 884.171875 445.113281 L 884.605469 446.234375 C 885.566406 448.78125 885.566406 448.78125 885.566406 450.015625 C 884.03125 450.574219 882.5 451.128906 880.964844 451.679688 L 879.644531 452.160156 L 878.375 452.613281 L 877.207031 453.035156 C 876.152344 453.339844 876.152344 453.339844 874.492188 453.339844 C 873.335938 450.277344 872.183594 447.210938 871.035156 444.140625 C 870.644531 443.101562 870.253906 442.058594 869.859375 441.019531 C 869.292969 439.515625 868.730469 438.011719 868.164062 436.503906 L 867.640625 435.113281 L 867.136719 433.769531 L 866.699219 432.609375 C 865.941406 430.476562 865.238281 428.324219 864.523438 426.179688 L 816.90625 426.179688 L 815.242188 431.722656 C 814.6875 433.316406 814.117188 434.90625 813.527344 436.488281 L 813.054688 437.765625 C 812.726562 438.644531 812.402344 439.523438 812.074219 440.398438 C 811.570312 441.75 811.070312 443.097656 810.574219 444.449219 L 809.617188 447.019531 L 809.164062 448.246094 C 808.109375 451.0625 808.109375 451.0625 807.492188 451.679688 C 806.667969 451.722656 805.839844 451.742188 805.015625 451.734375 L 803.65625 451.730469 L 801.921875 451.714844 L 796.417969 451.679688 L 796.417969 440.039062 L 799.738281 440.039062 L 800.035156 439.011719 C 801.015625 435.675781 802.117188 432.410156 803.332031 429.152344 L 803.886719 427.644531 C 804.488281 426.023438 805.089844 424.402344 805.691406 422.785156 L 806.960938 419.359375 C 810 411.15625 813.0625 402.964844 816.136719 394.777344 C 818.34375 388.894531 820.539062 383.007812 822.71875 377.117188 C 826.382812 367.226562 830.082031 357.351562 833.789062 347.476562 C 834.621094 345.253906 835.453125 343.03125 836.285156 340.808594 M 840.160156 363.539062 C 836.117188 374.167969 832.121094 384.816406 828.171875 395.480469 C 827.449219 397.429688 826.726562 399.378906 826 401.328125 C 825.4375 402.847656 824.871094 404.367188 824.308594 405.890625 L 823.507812 408.050781 L 822.40625 411.019531 L 821.777344 412.71875 C 821.304688 413.847656 821.304688 413.847656 821.335938 414.539062 L 860.09375 414.539062 C 858.804688 410.171875 858.804688 410.171875 857.308594 405.910156 C 857.09375 405.34375 856.878906 404.777344 856.65625 404.195312 L 855.941406 402.339844 L 854.769531 399.265625 L 853.410156 395.710938 C 851.417969 390.5 849.441406 385.277344 847.460938 380.0625 L 845.304688 374.386719 L 843.964844 370.859375 L 843.332031 369.203125 L 842.753906 367.679688 L 842.246094 366.34375 C 841.90625 365.414062 841.578125 364.480469 841.269531 363.539062 Z M 840.160156 363.539062 " fill-opacity="1" fill-rule="nonzero"/><path fill="#ddc496" d="M 1097.085938 343.027344 C 1098.234375 343.015625 1099.382812 343.046875 1100.53125 343.09375 L 1102.644531 343.175781 L 1104.871094 343.269531 L 1107.105469 343.355469 C 1108.933594 343.429688 1110.761719 343.503906 1112.589844 343.582031 L 1112.589844 344.75 C 1112.613281 354.144531 1112.644531 363.542969 1112.691406 372.941406 C 1112.714844 377.488281 1112.730469 382.03125 1112.738281 386.578125 C 1112.746094 390.542969 1112.761719 394.503906 1112.785156 398.46875 C 1112.796875 400.566406 1112.808594 402.660156 1112.808594 404.757812 C 1112.808594 406.738281 1112.816406 408.714844 1112.835938 410.695312 C 1112.839844 411.753906 1112.835938 412.816406 1112.832031 413.878906 C 1112.898438 419.539062 1114.167969 424.242188 1116.984375 429.160156 C 1119.707031 433.402344 1122.617188 436.390625 1126.984375 438.929688 C 1132.492188 441.445312 1137.546875 442.671875 1143.597656 442.253906 C 1149.238281 441.445312 1153.839844 439.574219 1158.378906 436.136719 C 1162.613281 432.554688 1165.082031 428.667969 1167.027344 423.511719 C 1168.0625 420.550781 1168.582031 417.851562 1168.601562 414.710938 L 1168.617188 412.804688 L 1168.628906 410.730469 L 1168.644531 408.535156 C 1168.660156 406.550781 1168.671875 404.566406 1168.683594 402.582031 C 1168.695312 400.507812 1168.710938 398.433594 1168.726562 396.359375 C 1168.753906 392.433594 1168.777344 388.507812 1168.800781 384.578125 C 1168.828125 380.109375 1168.859375 375.636719 1168.890625 371.167969 C 1168.953125 361.972656 1169.011719 352.777344 1169.070312 343.582031 L 1180.144531 343.582031 C 1180.183594 353.585938 1180.210938 363.589844 1180.230469 373.59375 C 1180.238281 378.238281 1180.25 382.882812 1180.269531 387.53125 C 1180.285156 391.582031 1180.296875 395.632812 1180.300781 399.683594 C 1180.300781 401.828125 1180.308594 403.96875 1180.320312 406.113281 C 1180.328125 408.136719 1180.332031 410.15625 1180.332031 412.179688 C 1180.332031 413.265625 1180.339844 414.351562 1180.347656 415.4375 C 1180.328125 421.410156 1179.28125 426.90625 1176.542969 432.242188 L 1175.96875 433.367188 C 1172.5 439.859375 1167.566406 445.011719 1161.316406 448.90625 C 1155.804688 451.914062 1149.898438 454.054688 1143.597656 454.449219 L 1142.28125 454.539062 C 1134.769531 454.796875 1127.519531 452.980469 1120.894531 449.460938 C 1114.339844 445.441406 1109.089844 440.132812 1105.390625 433.386719 C 1102.082031 427.101562 1100.710938 420.953125 1100.722656 413.875 L 1100.707031 411.9375 C 1100.6875 409.851562 1100.683594 407.765625 1100.679688 405.675781 C 1100.667969 404.21875 1100.660156 402.761719 1100.648438 401.304688 C 1100.625 397.878906 1100.609375 394.449219 1100.59375 391.023438 C 1100.582031 387.117188 1100.554688 383.207031 1100.53125 379.300781 C 1100.480469 371.277344 1100.4375 363.25 1100.40625 355.222656 L 1096.53125 354.667969 C 1096.515625 352.832031 1096.503906 350.996094 1096.496094 349.160156 L 1096.484375 347.570312 L 1096.476562 346.058594 L 1096.46875 344.660156 L 1096.53125 343.582031 Z M 1097.085938 343.027344 " fill-opacity="1" fill-rule="nonzero"/><path fill="#c5a156" d="M 475.816406 343.027344 L 486.890625 343.582031 C 486.941406 353.402344 486.980469 363.222656 487.003906 373.042969 C 487.015625 377.605469 487.035156 382.167969 487.058594 386.726562 C 487.078125 390.707031 487.09375 394.6875 487.097656 398.664062 C 487.101562 400.769531 487.109375 402.871094 487.125 404.976562 C 487.273438 424.957031 487.273438 424.957031 482.140625 434.265625 C 480.003906 437.957031 477.195312 440.957031 474.15625 443.917969 L 473.136719 444.929688 C 467.964844 449.734375 461.519531 452.242188 454.773438 453.894531 C 447.566406 455.085938 440.5 454.4375 433.566406 452.195312 C 426.671875 449.480469 420.472656 445.273438 415.785156 439.496094 C 411.785156 433.984375 408.808594 427.972656 407.710938 421.191406 C 407.550781 418.980469 407.539062 416.78125 407.53125 414.566406 L 407.515625 412.617188 C 407.5 410.5 407.488281 408.386719 407.480469 406.273438 C 407.46875 404.800781 407.457031 403.328125 407.449219 401.855469 C 407.421875 398.386719 407.402344 394.917969 407.382812 391.449219 C 407.363281 387.496094 407.335938 383.542969 407.308594 379.59375 C 407.25 371.46875 407.199219 363.34375 407.15625 355.222656 L 403.28125 354.667969 L 403.28125 343.582031 L 418.785156 343.582031 L 418.808594 350.125 C 418.835938 357.277344 418.871094 364.429688 418.914062 371.582031 C 418.941406 375.917969 418.960938 380.253906 418.976562 384.589844 C 418.988281 388.371094 419.007812 392.152344 419.03125 395.933594 C 419.046875 397.933594 419.054688 399.929688 419.058594 401.929688 C 419.0625 404.171875 419.078125 406.414062 419.097656 408.652344 L 419.09375 410.625 C 419.167969 417.152344 420.234375 423.308594 423.367188 429.089844 C 425.960938 433.242188 429.058594 436.136719 433.25 438.648438 C 436.671875 440.441406 440.378906 441.929688 444.253906 442.253906 L 445.515625 442.359375 C 450.628906 442.59375 455.660156 441.457031 460.277344 439.265625 C 461.625 438.484375 462.929688 437.632812 464.1875 436.710938 L 465.25 435.953125 C 468.832031 433.152344 471.40625 429.316406 473.21875 425.171875 C 475.222656 419.527344 475.429688 413.59375 475.4375 407.660156 L 475.457031 405.523438 C 475.472656 403.621094 475.480469 401.714844 475.488281 399.808594 C 475.496094 397.808594 475.511719 395.808594 475.523438 393.808594 C 475.550781 390.03125 475.570312 386.253906 475.589844 382.476562 C 475.609375 378.171875 475.636719 373.867188 475.664062 369.5625 C 475.722656 360.714844 475.773438 351.871094 475.816406 343.027344 M 381.578125 345.792969 C 384.5625 347.167969 387.285156 348.925781 389.992188 350.789062 L 391.652344 351.894531 C 391.847656 352.929688 391.847656 352.929688 391.832031 354.167969 L 391.824219 355.511719 L 391.789062 356.917969 L 391.78125 358.332031 C 391.765625 359.515625 391.710938 360.695312 391.652344 361.875 L 391.097656 362.429688 C 390.273438 362.472656 389.449219 362.492188 388.621094 362.484375 L 387.113281 362.476562 L 385.527344 362.464844 L 383.933594 362.457031 C 382.628906 362.449219 381.328125 362.441406 380.023438 362.429688 L 380.023438 357.992188 L 378.578125 357.527344 C 376.179688 356.707031 373.847656 355.746094 371.5 354.789062 C 364.347656 352.371094 356.085938 352.054688 348.667969 353.40625 C 340.636719 355.175781 333.355469 358.550781 327.21875 364.0625 C 320.910156 369.980469 316.84375 376.832031 314.167969 385.089844 C 313.253906 388.238281 312.65625 391.308594 312.46875 394.582031 L 312.382812 395.914062 C 312.128906 403.214844 313.738281 410.742188 316.898438 417.308594 C 320.710938 424.449219 325.730469 430.429688 332.402344 435.046875 C 339.429688 439.335938 347.105469 441.878906 355.347656 442.367188 C 365.851562 442.507812 374.679688 439.332031 383.898438 434.492188 C 384.917969 435.84375 385.933594 437.191406 386.945312 438.546875 L 387.824219 439.707031 L 388.660156 440.828125 L 389.429688 441.855469 L 389.992188 442.808594 L 389.992188 444.472656 C 381.066406 449.796875 371.765625 454.066406 361.195312 454.449219 L 359.554688 454.515625 C 348.71875 454.742188 338.921875 452.292969 329.425781 447.171875 C 326.066406 445.289062 323.085938 443.171875 320.222656 440.589844 L 319.125 439.726562 C 312.339844 434.28125 307.523438 426.371094 304.253906 418.394531 C 300.484375 408.53125 299.585938 397.628906 301.242188 387.1875 C 302.164062 382.414062 303.691406 377.882812 305.824219 373.515625 L 306.648438 371.78125 C 311.152344 362.839844 317.820312 355.324219 326.175781 349.816406 C 343.097656 339.167969 363.304688 338.066406 381.578125 345.792969 " fill-opacity="1" fill-rule="nonzero"/><path fill="#ddc496" d="M 880.582031 343.582031 L 971.390625 343.582031 L 971.390625 359.101562 L 959.765625 359.101562 L 959.765625 354.667969 L 931.523438 354.667969 L 931.523438 451.679688 L 920.449219 451.679688 L 919.894531 355.222656 L 892.210938 355.222656 L 891.65625 359.101562 L 880.582031 359.101562 Z M 880.582031 343.582031 " fill-opacity="1" fill-rule="nonzero"/></svg>