<svg xmlns="http://www.w3.org/2000/svg" xmlns:xlink="http://www.w3.org/1999/xlink" width="1920" zoomAndPan="magnify" viewBox="0 0 1440 809.999993" height="1080" preserveAspectRatio="xMidYMid meet" version="1.0"><path fill="#c5a156" d="M 778.300781 129.472656 C 791.824219 136.234375 803.277344 145.25 813.921875 155.910156 L 815.171875 157.0625 C 828.6875 169.730469 838.632812 188.632812 843.96875 206.183594 C 850.097656 227.988281 851.105469 250.941406 845.808594 273.023438 C 839.972656 295.796875 828.53125 315.597656 812.234375 332.445312 C 796.714844 348.199219 777.070312 359.164062 755.816406 365.054688 C 733.835938 370.910156 711.207031 370.421875 689.257812 364.769531 C 668.726562 359.1875 651.234375 348.480469 635.789062 334 L 634.75 333.03125 C 619.542969 318.753906 608.507812 300.097656 602.296875 280.222656 C 595.886719 258.859375 595.09375 235.761719 600.199219 214.039062 C 606.128906 190.214844 618.132812 170.128906 635.101562 152.472656 C 636.859375 150.769531 638.699219 149.203125 640.601562 147.660156 L 641.621094 146.824219 C 647.433594 142.070312 653.40625 137.742188 659.859375 133.90625 L 661.054688 133.195312 C 672.363281 126.570312 684.910156 122.238281 697.6875 119.46875 L 699.21875 119.128906 C 725.476562 113.523438 754.285156 117.960938 778.300781 129.472656 M 665.628906 147.519531 C 659.164062 151.660156 653.109375 156.195312 647.480469 161.414062 L 646.289062 162.511719 C 632.125 175.746094 622.015625 192.40625 616.359375 210.921875 C 610.730469 230.058594 610.152344 249.648438 614.640625 269.066406 C 619.589844 289.386719 629.867188 306.363281 644.042969 321.625 L 645.246094 322.964844 C 652.847656 331.058594 662.394531 337.253906 672.242188 342.253906 L 673.523438 342.914062 C 690.453125 351.523438 709.257812 355.402344 728.238281 354.554688 C 748.226562 353.265625 767.359375 347.585938 784.148438 336.472656 C 801.472656 324.59375 814.949219 309.359375 824.070312 290.425781 C 830.144531 277.367188 834.113281 263.199219 834.558594 248.738281 L 834.640625 246.257812 C 834.976562 226.269531 830.34375 207.128906 820.847656 189.546875 C 811.648438 173.039062 798.710938 159.09375 782.757812 148.949219 C 764.886719 138.316406 745.742188 132.070312 724.878906 131.683594 C 704.171875 131.554688 683.34375 136.550781 665.628906 147.519531 " fill-opacity="1" fill-rule="nonzero"/><path fill="#ddc496" d="M 985.480469 473.996094 C 994.035156 478.347656 1001.464844 484.339844 1007.878906 491.464844 L 1008.566406 492.839844 C 1010.71875 492.308594 1010.71875 492.308594 1012.039062 490.597656 L 1013.59375 488.628906 L 1015.246094 486.566406 L 1016.820312 484.585938 C 1018.148438 482.941406 1019.523438 481.339844 1020.945312 479.773438 L 1022.320312 479.773438 C 1021.40625 481.726562 1020.367188 483.394531 1019.054688 485.101562 L 1017.957031 486.542969 L 1015.679688 489.507812 L 1014.582031 490.949219 L 1013.585938 492.246094 C 1012.660156 493.570312 1011.894531 494.769531 1011.316406 496.277344 C 1012.257812 498.3125 1012.257812 498.3125 1013.765625 500.402344 C 1019.316406 508.867188 1023.214844 519.09375 1023.820312 529.269531 C 1024.015625 539.265625 1024.097656 548.609375 1020.945312 558.160156 L 1020.191406 560.515625 C 1015.933594 572.570312 1008.402344 582.652344 998.9375 591.167969 C 996.722656 592.90625 994.429688 594.460938 992.058594 595.980469 L 990.558594 597.023438 C 981.316406 603.105469 969.804688 606.335938 958.832031 607.09375 C 945.277344 607.761719 932.671875 605.050781 920.539062 598.96875 C 913.734375 595.394531 907.886719 590.582031 902.648438 584.976562 L 901.433594 585.355469 C 899.550781 585.933594 897.660156 586.488281 895.769531 587.042969 L 893.863281 587.636719 C 888.128906 589.285156 882.449219 589.734375 876.511719 589.105469 C 873.878906 588.277344 871.867188 587.1875 869.761719 585.367188 C 868.441406 583.820312 867.644531 582.707031 866.882812 580.851562 C 866.625 577.433594 867.558594 574.34375 868.988281 571.269531 C 871.050781 567.445312 873.683594 564.191406 876.511719 560.914062 L 877.992188 559.175781 C 881.722656 554.882812 881.722656 554.882812 883.582031 553.859375 L 884.765625 552.660156 C 884.738281 550.71875 884.578125 549.09375 884.25 547.203125 C 884.097656 546.136719 883.945312 545.066406 883.800781 544 L 883.578125 542.417969 C 882.226562 532.050781 884.425781 520.304688 888.320312 510.664062 C 891.609375 503.035156 895.589844 496.199219 901.273438 490.089844 L 903.027344 488.164062 C 911.695312 479.074219 922.351562 472.765625 934.363281 469.167969 C 951.859375 464.222656 969.179688 466.429688 985.480469 473.992188 M 949.417969 481.148438 L 949.417969 483.210938 C 951.449219 484.175781 953.371094 484.960938 955.605469 485.273438 C 957.507812 484.410156 958.3125 483.441406 959.734375 481.835938 L 959.734375 481.148438 Z M 975.550781 485.964844 C 973.199219 487.597656 971.566406 489.734375 970.050781 492.152344 C 969.613281 494.007812 969.726562 495.054688 970.050781 496.964844 C 972.371094 497.25 972.371094 497.25 974.863281 496.964844 C 975.574219 495.832031 976.261719 494.683594 976.929688 493.527344 C 978.90625 492.210938 980.988281 491.136719 983.117188 490.089844 L 983.761719 492.367188 C 984.203125 493.910156 984.675781 495.441406 985.179688 496.964844 L 983.117188 501.089844 L 983.804688 503.152344 L 980.367188 503.839844 L 981.054688 507.277344 L 979.679688 507.707031 C 976.832031 509.011719 974.265625 510.476562 972.113281 512.78125 C 971.597656 515.304688 971.597656 515.304688 972.113281 517.59375 L 972.800781 518.96875 L 969.363281 518.96875 L 967.300781 512.78125 L 959.734375 512.78125 L 959.046875 514.15625 L 956.808594 514.285156 L 954.230469 514.84375 C 952.816406 516.296875 951.789062 517.894531 950.792969 519.65625 L 951.695312 521.332031 C 952.601562 523.25 953.238281 524.949219 953.84375 526.960938 C 954.441406 528.769531 954.972656 530.050781 956.035156 531.644531 C 958.449219 533.234375 960.992188 533.847656 963.859375 534.09375 C 966.039062 533.90625 967.179688 533.488281 969 532.253906 L 970.78125 530.742188 C 971.4375 530.1875 972.097656 529.628906 972.773438 529.058594 C 975.640625 526.558594 978.4375 523.988281 981.222656 521.402344 C 982.703125 520.039062 984.199219 518.71875 985.738281 517.421875 C 987.628906 515.757812 989.464844 514.035156 991.25 512.253906 L 992.679688 510.832031 C 994.769531 508.734375 996.855469 506.632812 998.9375 504.527344 C 997.542969 500.242188 994.449219 497.488281 991.1875 494.535156 C 989.097656 492.765625 986.890625 491.191406 984.621094 489.660156 L 983.328125 488.773438 C 981.433594 487.539062 979.644531 486.640625 977.496094 485.945312 Z M 917.089844 494.214844 C 909.507812 500.863281 904.179688 508.832031 900.585938 518.28125 C 897.429688 528.132812 896.621094 538.644531 898.648438 548.835938 C 900.734375 557.066406 903.867188 563.695312 908.835938 570.539062 C 912.777344 569.421875 916.1875 567.554688 919.757812 565.597656 L 921.722656 564.515625 C 926.980469 561.59375 932.160156 558.546875 937.292969 555.410156 L 939.5 554.089844 L 941.523438 552.832031 L 943.328125 551.726562 C 943.746094 551.355469 944.167969 550.980469 944.601562 550.597656 L 944.601562 545.097656 C 945.710938 543.46875 945.710938 543.46875 947.179688 541.746094 C 949.25 539.269531 951.132812 536.820312 952.855469 534.09375 C 950.972656 530.839844 950.972656 530.839844 948.105469 528.542969 C 946.59375 527.972656 945.074219 527.480469 943.527344 527.003906 C 937.464844 524.925781 933.363281 522.058594 928.78125 517.59375 L 928.09375 518.96875 C 928.738281 520.589844 929.425781 522.195312 930.160156 523.78125 L 926.71875 524.46875 L 926.246094 522.75 C 925.46875 520.679688 924.816406 519.585938 923.542969 517.867188 C 922.5 516.230469 921.933594 515.160156 921.765625 513.21875 C 921.894531 511.484375 922.097656 509.777344 922.335938 508.050781 C 922.679688 504.589844 922.9375 501.933594 921.605469 498.667969 C 920.425781 497.007812 919.296875 495.566406 917.777344 494.214844 Z M 1000.3125 507.277344 C 999.347656 508.203125 999.347656 508.203125 998.335938 509.472656 C 990.746094 518.359375 982.480469 526.566406 974.175781 534.78125 C 976.472656 536.003906 978.289062 536.390625 980.882812 536.675781 C 984.449219 537.238281 986.8125 538.210938 989.703125 540.335938 C 990.683594 541.660156 990.683594 541.660156 991.125 543.839844 L 991.371094 546.472656 L 991.585938 547.867188 C 992.136719 551.554688 992.441406 555.234375 991.371094 558.847656 C 988.832031 562.832031 984.726562 565.605469 981.054688 568.476562 C 975.335938 573.042969 975.335938 573.042969 971.398438 579.078125 C 970.144531 582.8125 969.339844 586.601562 968.675781 590.480469 C 972.230469 590.085938 974.945312 588.945312 978.089844 587.34375 L 979.550781 586.601562 C 988.707031 581.835938 995.921875 575.492188 1001.566406 566.835938 C 1007.03125 558.023438 1009.808594 548.558594 1010.183594 538.222656 C 1010.316406 527.742188 1007.742188 518.664062 1003.0625 509.339844 L 1001.6875 507.277344 Z M 950.792969 554.035156 L 949.824219 554.765625 C 943.363281 559.617188 936.839844 564.339844 930.117188 568.820312 L 928.359375 569.992188 C 924.441406 572.582031 920.449219 575.03125 916.402344 577.414062 C 917.328125 579.519531 917.839844 580.210938 919.753906 581.667969 C 920.566406 582.191406 921.382812 582.707031 922.207031 583.21875 L 923.523438 584.039062 C 931.882812 589.164062 940.71875 592.402344 950.578125 592.734375 C 956.695312 593.164062 956.695312 593.164062 962.484375 591.855469 C 962.359375 591.480469 962.234375 591.105469 962.105469 590.71875 L 960.421875 585.667969 L 959.464844 583.125 C 958.425781 580.015625 957.800781 576.875 957.199219 573.65625 L 956.902344 572.066406 C 956.492188 569.863281 956.085938 567.660156 955.695312 565.457031 C 955.402344 563.835938 955.101562 562.210938 954.792969 560.59375 L 954.535156 559.078125 C 954.261719 557.515625 954.261719 557.515625 953.542969 555.410156 C 952.191406 554.351562 952.191406 554.351562 950.792969 554.035156 M 885.453125 556.097656 C 877.960938 565.382812 877.960938 565.382812 873.363281 576.242188 C 873.121094 577.671875 873.121094 577.671875 873.074219 579.476562 C 874.59375 580.695312 875.984375 581.441406 877.910156 581.796875 C 881.808594 582.007812 885.179688 581.152344 888.847656 579.949219 L 890.207031 579.507812 C 892.5625 578.679688 894.089844 577.867188 895.769531 576.039062 L 895.183594 574.949219 C 888.085938 561.746094 888.085938 561.746094 886.140625 556.097656 Z M 885.453125 556.097656 " fill-opacity="1" fill-rule="nonzero"/><path fill="#c5a156" d="M 722.792969 144.652344 L 724.242188 144.652344 C 732.59375 144.675781 740.507812 145.476562 748.585938 147.660156 L 749.953125 148.015625 C 766.570312 152.5 781.101562 161.847656 793.289062 173.789062 L 794.792969 175.234375 C 798.875 179.222656 798.875 179.222656 800.167969 181.351562 L 800.167969 183.414062 C 799.222656 184.34375 799.222656 184.34375 797.910156 185.273438 L 796.5 186.285156 L 795.007812 187.328125 L 793.519531 188.390625 C 792.300781 189.261719 791.078125 190.121094 789.851562 190.980469 C 787.105469 189.726562 785.675781 188.121094 783.703125 185.824219 C 774.472656 175.4375 761.738281 168.078125 748.601562 163.710938 C 744.234375 162.375 739.847656 161.429688 735.347656 160.6875 L 733.101562 160.316406 L 731.390625 160.039062 L 731.378906 162.246094 C 731.308594 179.96875 731.234375 197.6875 731.15625 215.40625 C 731.117188 223.976562 731.082031 232.546875 731.046875 241.113281 C 731.019531 248.578125 730.984375 256.046875 730.953125 263.511719 C 730.933594 267.46875 730.917969 271.421875 730.902344 275.378906 C 730.886719 279.097656 730.871094 282.816406 730.851562 286.535156 C 730.847656 287.902344 730.839844 289.273438 730.835938 290.640625 C 730.832031 292.503906 730.820312 294.363281 730.8125 296.222656 L 730.808594 297.886719 C 730.796875 299.152344 730.753906 300.417969 730.703125 301.683594 L 730.015625 302.371094 L 715.570312 302.371094 L 714.882812 160.039062 C 705.1875 161.664062 705.1875 161.664062 695.882812 164.292969 L 694.050781 164.917969 C 680.183594 169.832031 668.351562 178.660156 658.683594 189.707031 C 649.152344 201.5625 643.09375 215.25 640.480469 230.230469 C 638.871094 241.125 639.289062 252.5 641.976562 263.179688 L 642.324219 264.5625 C 646.21875 279.488281 654.398438 292.546875 665.105469 303.539062 C 675.933594 313.816406 689.25 320.683594 703.675781 324.332031 C 718.09375 327.582031 732.453125 327.171875 746.695312 323.125 C 758.46875 319.40625 768.875 313.996094 778.160156 305.808594 L 779.472656 304.769531 C 785.511719 299.972656 791.214844 292.769531 794.664062 285.871094 C 798.015625 286.277344 800.574219 287.742188 803.476562 289.351562 L 804.921875 290.136719 C 806.089844 290.773438 807.257812 291.414062 808.421875 292.058594 C 802.875 304.59375 791.925781 315.109375 781.074219 323.21875 C 767.765625 332.90625 751.789062 339.1875 735.449219 341.261719 C 716.90625 343.199219 699.140625 340.699219 682.082031 333.1875 C 671.042969 327.988281 661.730469 321.117188 652.984375 312.6875 L 651.640625 311.453125 C 640.375 300.820312 632.726562 286.085938 628.222656 271.429688 C 627.101562 267.34375 626.234375 263.21875 625.472656 259.050781 L 625.109375 257.140625 C 622.738281 240.980469 624.605469 223.382812 630.5 208.207031 C 637.242188 191.6875 647.710938 176.734375 661.699219 165.523438 C 672.394531 157.300781 684.125 151.53125 697.085938 147.832031 L 698.527344 147.417969 C 706.535156 145.25 714.523438 144.628906 722.792969 144.652344 M 537.433594 470.148438 C 543.359375 469.597656 549.429688 469.082031 555.316406 470.148438 C 557.351562 471.148438 557.894531 471.9375 559.316406 473.84375 C 560.0625 475.097656 560.765625 476.378906 561.425781 477.679688 C 562.859375 480.300781 564.714844 482.628906 566.492188 485.015625 C 567.257812 486.078125 568.023438 487.140625 568.785156 488.207031 C 572.332031 493.128906 575.945312 498.003906 579.550781 502.882812 C 581.5625 505.609375 583.570312 508.332031 585.578125 511.0625 L 587.988281 514.328125 L 615.65625 551.871094 C 617.734375 554.6875 619.808594 557.5 621.882812 560.320312 L 623.179688 562.082031 L 625.613281 565.386719 L 626.738281 566.914062 L 627.710938 568.234375 C 629.476562 570.613281 631.257812 572.980469 633.035156 575.351562 L 633.722656 470.148438 L 648.167969 470.148438 L 648.167969 603.542969 L 635.101562 603.542969 C 631.035156 599.097656 631.035156 599.097656 629.894531 596.878906 C 628.078125 593.558594 625.859375 590.613281 623.578125 587.601562 C 622.75 586.480469 621.921875 585.359375 621.097656 584.238281 L 619.839844 582.542969 C 617.816406 579.804688 615.796875 577.0625 613.777344 574.320312 L 611.371094 571.054688 L 577.671875 525.328125 L 576.464844 523.691406 L 574.074219 520.449219 C 571.992188 517.621094 569.910156 514.796875 567.824219 511.972656 L 566.515625 510.203125 L 564.054688 506.867188 L 562.921875 505.335938 L 561.941406 504.003906 C 560.40625 501.898438 558.894531 499.773438 557.378906 497.652344 L 556.691406 603.542969 L 542.25 603.542969 L 541.5625 484.585938 L 538.121094 484.585938 L 537.433594 483.898438 C 537.378906 482.875 537.355469 481.851562 537.367188 480.824219 L 537.375 478.953125 L 537.390625 476.980469 L 537.402344 475.003906 C 537.410156 473.386719 537.421875 471.765625 537.433594 470.148438 " fill-opacity="1" fill-rule="nonzero"/><path fill="#ddc496" d="M 1164.691406 470.148438 C 1172.394531 470.085938 1180.09375 470.035156 1187.796875 470.003906 C 1191.375 469.992188 1194.949219 469.96875 1198.527344 469.941406 C 1201.988281 469.910156 1205.449219 469.894531 1208.910156 469.886719 C 1210.222656 469.882812 1211.53125 469.871094 1212.84375 469.855469 C 1223.5 469.742188 1233.074219 470.710938 1242.636719 475.914062 C 1248.773438 479.621094 1253 484.007812 1256.855469 490.089844 C 1260.039062 496.078125 1261.628906 502.183594 1261.691406 508.960938 C 1261.382812 515.960938 1259.75 522.039062 1256.253906 528.121094 C 1255.554688 529.207031 1254.835938 530.28125 1254.105469 531.34375 L 1253.234375 532.625 C 1249.578125 537.410156 1244.054688 540.949219 1238.636719 543.457031 C 1234.917969 544.910156 1231.148438 546.171875 1227.28125 547.160156 L 1228.367188 548 C 1236.457031 554.671875 1241.691406 563.878906 1247.175781 572.671875 C 1249.347656 576.148438 1251.582031 579.585938 1253.847656 583 L 1254.90625 584.621094 L 1255.894531 586.101562 L 1256.761719 587.410156 C 1257.511719 588.523438 1257.511719 588.523438 1258.917969 589.105469 C 1262.125 589.414062 1265.332031 589.585938 1268.546875 589.792969 L 1268.546875 603.542969 C 1255.46875 604.003906 1255.46875 604.003906 1251.523438 602.167969 C 1246.203125 598.707031 1242.824219 593.394531 1239.488281 588.117188 L 1238.320312 586.292969 C 1237.53125 585.066406 1236.746094 583.835938 1235.960938 582.605469 C 1233.429688 578.640625 1230.878906 574.691406 1228.3125 570.75 C 1227.574219 569.613281 1226.835938 568.472656 1226.105469 567.332031 C 1224.855469 565.386719 1223.597656 563.449219 1222.335938 561.515625 L 1221.171875 559.6875 C 1218.632812 555.8125 1215.902344 552.660156 1212.148438 549.910156 C 1204.238281 546.210938 1191.402344 547.445312 1183.949219 547.160156 L 1183.949219 603.542969 L 1169.507812 603.542969 L 1168.820312 484.585938 L 1164.691406 484.585938 Z M 1183.949219 483.898438 L 1183.949219 533.40625 L 1202.175781 533.578125 L 1207.859375 533.65625 C 1221.660156 533.820312 1221.660156 533.820312 1234.695312 529.707031 C 1238.976562 527.1875 1242.769531 523.296875 1245.25 518.996094 C 1247.164062 514.753906 1247.621094 510.5 1247.226562 505.902344 C 1246.292969 500.871094 1244.253906 496.800781 1241.035156 492.839844 C 1238.066406 489.488281 1234.554688 487.769531 1230.476562 486.015625 C 1223.929688 484.082031 1217.269531 483.699219 1210.480469 483.765625 L 1208.417969 483.769531 C 1205.921875 483.777344 1203.425781 483.796875 1200.929688 483.8125 Z M 1183.949219 483.898438 " fill-opacity="1" fill-rule="nonzero"/><path fill="#c5a156" d="M 418.449219 470.148438 C 426.136719 470.082031 433.828125 470.035156 441.515625 470.003906 C 445.089844 469.992188 448.660156 469.96875 452.234375 469.941406 C 455.6875 469.910156 459.144531 469.894531 462.601562 469.886719 C 463.910156 469.882812 465.21875 469.871094 466.527344 469.855469 C 476.71875 469.746094 486.167969 470.519531 495.4375 475.089844 C 501.511719 478.644531 506.945312 483.339844 510.613281 489.402344 C 514.621094 497.015625 515.824219 503.765625 515.636719 512.25 C 515.355469 518.21875 513.546875 523.257812 510.527344 528.378906 C 506.464844 534.304688 501.753906 538.964844 495.292969 542.175781 L 493.417969 543.035156 L 491.601562 543.871094 C 488.054688 545.394531 484.886719 546.1875 481.035156 546.472656 L 481.035156 547.847656 L 482.230469 548.367188 C 487.988281 551.527344 491.765625 557.683594 495.222656 563.0625 L 496.628906 565.203125 C 498.585938 568.195312 500.519531 571.195312 502.457031 574.199219 C 503.414062 575.683594 504.371094 577.167969 505.332031 578.648438 C 506.226562 580.039062 507.121094 581.429688 508.007812 582.820312 L 509.226562 584.714844 L 510.292969 586.382812 C 511.3125 587.902344 511.3125 587.902344 513.363281 589.105469 C 515.5625 589.421875 515.5625 589.421875 517.960938 589.535156 L 522.304688 589.792969 L 522.304688 603.542969 L 516.414062 603.671875 L 514.589844 603.730469 C 511.996094 603.757812 509.957031 603.554688 507.453125 602.804688 C 502.265625 599.875 498.839844 596.03125 495.695312 591.039062 L 494.640625 589.414062 C 493.90625 588.28125 493.175781 587.144531 492.449219 586.007812 C 490.667969 583.21875 488.859375 580.445312 487.054688 577.671875 L 485.957031 575.984375 L 483.65625 572.453125 C 482.777344 571.097656 481.898438 569.746094 481.023438 568.386719 C 479.574219 566.148438 478.113281 563.917969 476.652344 561.6875 L 475.289062 559.566406 C 472.738281 555.691406 470.324219 552.691406 466.59375 549.910156 C 458.582031 546.253906 446.019531 547.453125 438.394531 547.160156 L 438.394531 603.542969 L 423.949219 603.542969 L 423.261719 484.585938 L 419.136719 484.585938 L 418.449219 483.898438 C 418.394531 482.875 418.371094 481.851562 418.382812 480.824219 L 418.386719 478.953125 L 418.40625 476.980469 L 418.414062 475.003906 C 418.421875 473.386719 418.433594 471.765625 418.449219 470.148438 M 438.394531 483.898438 L 438.394531 533.40625 L 456.363281 533.539062 L 461.972656 533.59375 C 475.96875 533.691406 475.96875 533.691406 489.203125 529.539062 C 492.945312 527.304688 495.773438 524.625 498.230469 521.03125 C 500.453125 516.925781 501.726562 512.644531 501.671875 507.964844 C 501.332031 503.058594 500.035156 499.167969 497.332031 495.050781 C 494.457031 491.28125 490.886719 488.722656 486.578125 486.773438 C 476.597656 482.929688 465.734375 483.65625 455.246094 483.769531 Z M 438.394531 483.898438 " fill-opacity="1" fill-rule="nonzero"/><path fill="#ddc496" d="M 1364.425781 473.238281 C 1370.003906 476.007812 1375.734375 479.359375 1379.28125 484.585938 C 1380.207031 488.332031 1379.675781 491.746094 1379.28125 495.589844 L 1364.835938 495.589844 L 1364.148438 490.777344 C 1362.65625 489.101562 1360.660156 488.296875 1358.648438 487.339844 L 1356.761719 486.4375 C 1345.980469 481.632812 1335.125 480.785156 1323.4375 481.992188 C 1320.40625 482.4375 1317.476562 483.253906 1314.652344 484.441406 C 1311.828125 485.632812 1309.199219 487.15625 1306.761719 489.015625 C 1304.785156 490.988281 1303.824219 492.242188 1302.9375 494.902344 C 1302.546875 498.039062 1302.480469 501.015625 1303.4375 504.054688 C 1304.832031 507.050781 1306.613281 509.234375 1309.125 511.40625 L 1310.183594 512.335938 C 1319.035156 519.589844 1330.988281 523.351562 1341.398438 527.707031 C 1352.871094 532.515625 1364.425781 537.371094 1373.777344 545.785156 L 1375.121094 546.980469 C 1379.84375 551.4375 1382.800781 556.402344 1384.945312 562.511719 C 1386.558594 568.175781 1386.929688 574.363281 1385.738281 580.144531 C 1384.113281 585.121094 1381.410156 589.359375 1377.90625 593.230469 C 1369.636719 600.480469 1359.960938 603.796875 1349.40625 606.128906 C 1335.410156 608.515625 1321.042969 607.265625 1307.707031 602.425781 C 1297.972656 598.640625 1288.371094 593.796875 1280.925781 586.355469 C 1280.878906 584.390625 1280.863281 582.429688 1280.886719 580.464844 L 1280.925781 574.664062 L 1294.683594 574.664062 L 1295.371094 579.476562 C 1297.175781 581.113281 1297.175781 581.113281 1299.582031 582.269531 L 1300.890625 582.960938 C 1313.1875 589.3125 1325.140625 592.472656 1339.019531 592.074219 C 1347.710938 591.660156 1356.234375 590 1363.71875 585.335938 C 1366.332031 583.46875 1368.632812 581.542969 1370.339844 578.789062 C 1371.585938 575.5 1371.851562 573.078125 1371.371094 569.59375 C 1370.316406 564.804688 1368.175781 561.085938 1364.953125 557.414062 C 1356.347656 549.09375 1344.261719 545.007812 1333.417969 540.539062 C 1302.652344 527.808594 1302.652344 527.808594 1293.648438 516.976562 C 1290.785156 512.953125 1288.96875 508.625 1287.804688 503.839844 C 1287.277344 498.214844 1287.429688 492.925781 1289.644531 487.679688 C 1291.214844 484.726562 1293.113281 482.234375 1295.371094 479.773438 L 1296.363281 478.667969 C 1301.671875 473.5 1309.632812 470.335938 1316.691406 468.472656 C 1332.714844 464.484375 1349.414062 466.65625 1364.425781 473.238281 " fill-opacity="1" fill-rule="nonzero"/><path fill="#c5a156" d="M 717.632812 466.710938 L 727.949219 466.710938 C 733.863281 482.117188 739.710938 497.546875 745.496094 513 L 748.558594 521.167969 L 753.347656 533.957031 C 755.703125 540.242188 758.058594 546.527344 760.417969 552.808594 L 762.160156 557.460938 C 764.191406 562.875 766.226562 568.289062 768.265625 573.699219 C 769.429688 576.785156 770.59375 579.875 771.757812 582.964844 C 772.324219 584.46875 772.890625 585.972656 773.460938 587.476562 C 774.246094 589.558594 775.03125 591.636719 775.8125 593.71875 L 776.535156 595.621094 L 777.1875 597.355469 L 777.757812 598.871094 C 778.160156 600.105469 778.160156 600.105469 778.160156 601.480469 C 776.386719 602.191406 774.609375 602.894531 772.828125 603.585938 L 771.308594 604.199219 L 769.828125 604.769531 L 768.476562 605.304688 C 767.152344 605.605469 767.152344 605.605469 765.78125 605.464844 L 764.402344 604.917969 C 763.632812 603.671875 763.632812 603.671875 763.027344 602.023438 L 762.328125 600.160156 L 761.601562 598.132812 L 760.832031 596.0625 C 760.019531 593.875 759.222656 591.683594 758.425781 589.492188 C 757.882812 588.015625 757.339844 586.539062 756.792969 585.0625 C 755.59375 581.816406 754.402344 578.566406 753.21875 575.3125 C 752.726562 573.949219 752.726562 573.949219 752.023438 572.601562 L 693.5625 571.914062 L 691.5 578.789062 C 690.808594 580.769531 690.097656 582.738281 689.363281 584.703125 L 688.777344 586.285156 C 688.371094 587.375 687.96875 588.464844 687.558594 589.554688 C 686.9375 591.226562 686.316406 592.902344 685.695312 594.578125 L 684.507812 597.765625 L 683.945312 599.285156 C 682.636719 602.777344 682.636719 602.777344 681.871094 603.542969 C 680.84375 603.597656 679.820312 603.621094 678.792969 603.609375 L 677.105469 603.605469 L 674.949219 603.585938 L 668.113281 603.542969 L 668.113281 589.792969 L 671.550781 589.105469 C 672.730469 587.191406 672.730469 587.191406 673.546875 584.71875 L 674.066406 583.335938 C 674.628906 581.824219 675.167969 580.308594 675.710938 578.789062 C 676.105469 577.722656 676.496094 576.65625 676.890625 575.589844 C 677.707031 573.386719 678.515625 571.179688 679.3125 568.96875 C 680.398438 565.984375 681.503906 563.003906 682.617188 560.027344 C 684.007812 556.320312 685.390625 552.605469 686.765625 548.890625 C 687.027344 548.183594 687.027344 548.183594 687.296875 547.460938 L 688.371094 544.558594 C 689.90625 540.414062 691.441406 536.273438 692.980469 532.128906 C 693.574219 530.527344 694.171875 528.925781 694.765625 527.324219 C 698.773438 516.515625 702.792969 505.710938 706.820312 494.90625 C 707.578125 492.882812 708.332031 490.855469 709.089844 488.828125 C 709.972656 486.449219 710.855469 484.074219 711.742188 481.699219 C 712.21875 480.421875 712.695312 479.144531 713.171875 477.863281 C 714.574219 474.105469 716.003906 470.378906 717.632812 466.710938 M 722.449219 494.214844 C 718.96875 503.074219 715.609375 511.976562 712.304688 520.902344 C 706.878906 535.539062 706.878906 535.539062 704.234375 542.464844 L 703.6875 543.894531 C 702.859375 546.0625 702.03125 548.226562 701.195312 550.390625 L 700.332031 552.640625 L 699.582031 554.582031 C 698.988281 556.046875 698.988281 556.046875 699.0625 557.472656 L 746.519531 558.160156 C 746.03125 555.21875 745.578125 553.078125 744.5625 550.371094 C 744.296875 549.667969 744.035156 548.964844 743.765625 548.242188 L 742.894531 545.960938 L 741.996094 543.558594 C 741.191406 541.429688 740.386719 539.300781 739.582031 537.171875 C 738.917969 535.421875 738.257812 533.667969 737.597656 531.914062 C 732.851562 519.320312 728.054688 506.742188 723.136719 494.214844 Z M 307.027344 470.148438 L 396.441406 470.148438 L 396.441406 489.402344 L 382.683594 489.402344 L 381.996094 484.585938 L 326.972656 484.585938 L 326.972656 532.71875 L 361.363281 533.40625 L 361.363281 547.160156 L 326.972656 547.847656 L 326.972656 589.105469 L 389.5625 589.792969 L 389.5625 584.289062 L 404.003906 584.289062 L 404.003906 603.542969 L 312.53125 603.542969 L 311.84375 484.585938 L 307.714844 484.585938 L 307.027344 483.898438 Z M 307.027344 470.148438 " fill-opacity="1" fill-rule="nonzero"/><path fill="#ddc496" d="M 1038.828125 470.148438 L 1058.085938 470.148438 L 1058.105469 478.527344 C 1058.128906 487.683594 1058.167969 496.839844 1058.210938 505.996094 C 1058.238281 511.542969 1058.261719 517.09375 1058.273438 522.640625 C 1058.28125 527.480469 1058.300781 532.320312 1058.332031 537.160156 C 1058.34375 539.71875 1058.355469 542.28125 1058.355469 544.839844 C 1058.355469 547.707031 1058.375 550.570312 1058.398438 553.4375 L 1058.386719 555.972656 C 1058.46875 562.855469 1059.976562 569.015625 1063.074219 575.179688 C 1066.429688 580.734375 1070.582031 584.78125 1076.144531 588.117188 C 1082.414062 591.398438 1088.75 592.171875 1095.769531 592.042969 C 1102.175781 591.753906 1107.71875 589.351562 1113.09375 585.984375 C 1114.503906 585.023438 1114.503906 585.023438 1115.617188 583.820312 L 1116.546875 582.914062 L 1117.921875 582.914062 C 1118.101562 582.527344 1118.28125 582.136719 1118.464844 581.738281 C 1119.375 580.023438 1120.453125 578.574219 1121.621094 577.027344 C 1125.097656 572.117188 1126.992188 566.902344 1127.550781 560.914062 C 1127.664062 557.953125 1127.679688 554.996094 1127.691406 552.035156 L 1127.714844 549.347656 C 1127.730469 546.933594 1127.746094 544.515625 1127.761719 542.097656 C 1127.777344 539.566406 1127.792969 537.035156 1127.8125 534.503906 C 1127.847656 529.714844 1127.878906 524.929688 1127.90625 520.140625 C 1127.941406 514.6875 1127.980469 509.234375 1128.019531 503.78125 C 1128.09375 492.570312 1128.167969 481.359375 1128.238281 470.148438 L 1141.996094 470.148438 C 1142.058594 482.34375 1142.109375 494.535156 1142.136719 506.730469 C 1142.152344 512.390625 1142.171875 518.054688 1142.203125 523.71875 C 1142.230469 528.660156 1142.246094 533.597656 1142.253906 538.539062 C 1142.257812 541.152344 1142.265625 543.761719 1142.285156 546.375 C 1142.304688 548.839844 1142.3125 551.308594 1142.308594 553.773438 C 1142.308594 555.09375 1142.320312 556.414062 1142.339844 557.734375 C 1142.296875 566.710938 1139.984375 574.796875 1135.792969 582.71875 C 1130.9375 590.773438 1124.320312 597.160156 1116.132812 601.753906 C 1106.894531 606.121094 1097.136719 607.75 1086.972656 606.980469 C 1078.789062 605.933594 1070.382812 602.785156 1063.757812 597.828125 C 1061.242188 595.765625 1058.96875 593.507812 1056.710938 591.167969 L 1055.328125 589.847656 C 1050.304688 584.738281 1046.976562 577.285156 1045.0625 570.453125 C 1044.792969 569.339844 1044.550781 568.222656 1044.332031 567.101562 L 1043.976562 565.414062 C 1043.515625 562.042969 1043.519531 558.710938 1043.5 555.3125 L 1043.480469 552.992188 C 1043.460938 550.46875 1043.441406 547.949219 1043.425781 545.425781 L 1043.382812 540.171875 C 1043.347656 536.035156 1043.316406 531.902344 1043.289062 527.765625 C 1043.253906 523.054688 1043.214844 518.347656 1043.175781 513.636719 C 1043.097656 503.953125 1043.023438 494.269531 1042.953125 484.585938 L 1041.277344 484.632812 L 1039.515625 484.585938 L 1038.828125 483.898438 C 1038.773438 482.875 1038.75 481.851562 1038.761719 480.824219 L 1038.765625 479.136719 L 1038.785156 476.980469 Z M 1038.828125 470.148438 " fill-opacity="1" fill-rule="nonzero"/><path fill="#c5a156" d="M 181.851562 470.148438 L 201.109375 470.148438 L 201.128906 478.378906 C 201.152344 487.382812 201.191406 496.382812 201.234375 505.386719 C 201.265625 510.839844 201.285156 516.292969 201.296875 521.75 C 201.304688 526.507812 201.324219 531.265625 201.355469 536.027344 C 201.367188 538.542969 201.378906 541.058594 201.378906 543.574219 C 201.140625 560.238281 201.140625 560.238281 206.570312 575.738281 C 207.253906 576.769531 207.953125 577.785156 208.675781 578.789062 L 210.222656 580.980469 C 215.039062 585.90625 220.761719 588.949219 227.246094 591.167969 C 232.640625 592.554688 238.699219 592.425781 244.15625 591.382812 C 249.074219 589.976562 253.328125 587.914062 257.507812 584.976562 L 258.832031 584.0625 C 263.574219 580.414062 266.515625 575.042969 268.769531 569.59375 C 270.125 566.070312 270.660156 562.8125 270.683594 559.039062 L 270.703125 556.65625 L 270.714844 554.0625 L 270.738281 551.316406 C 270.753906 548.839844 270.769531 546.359375 270.785156 543.882812 C 270.800781 541.289062 270.816406 538.699219 270.835938 536.105469 C 270.871094 531.199219 270.902344 526.289062 270.929688 521.382812 C 270.964844 515.796875 271.003906 510.210938 271.042969 504.621094 C 271.121094 493.128906 271.195312 481.640625 271.261719 470.148438 L 285.019531 470.148438 C 285.15625 481.792969 285.28125 493.4375 285.394531 505.082031 C 285.445312 510.488281 285.503906 515.894531 285.570312 521.304688 C 285.625 526.023438 285.675781 530.738281 285.714844 535.457031 C 285.738281 537.953125 285.761719 540.445312 285.796875 542.941406 C 286.152344 568.871094 286.152344 568.871094 280.203125 580.851562 C 275.234375 589.277344 269.019531 596.011719 260.507812 600.960938 C 251.792969 605.507812 243.257812 607.410156 233.46875 607.152344 C 225.652344 606.777344 218.320312 604.445312 211.425781 600.792969 C 202.804688 595.226562 196.609375 588.726562 191.867188 579.640625 C 188.472656 572.546875 187.046875 565.886719 187.058594 558.042969 L 187.035156 555.621094 C 187.015625 553.007812 187.007812 550.390625 187 547.777344 C 186.992188 545.949219 186.976562 544.128906 186.964844 542.304688 C 186.933594 538.011719 186.914062 533.71875 186.898438 529.425781 C 186.878906 524.53125 186.851562 519.640625 186.820312 514.746094 C 186.757812 504.695312 186.707031 494.640625 186.667969 484.585938 L 184.644531 484.632812 L 182.539062 484.585938 L 181.851562 483.898438 C 181.796875 482.875 181.773438 481.851562 181.785156 480.824219 L 181.789062 479.136719 L 181.808594 476.980469 Z M 155.027344 472.898438 C 158.351562 474.539062 161.535156 476.398438 164.65625 478.398438 L 166.289062 479.199219 L 167.410156 480.460938 C 167.746094 482.578125 167.667969 484.644531 167.582031 486.78125 L 167.542969 488.539062 C 167.507812 489.972656 167.464844 491.40625 167.410156 492.839844 C 165.128906 492.972656 162.851562 493.101562 160.574219 493.226562 L 158.601562 493.34375 L 156.730469 493.445312 L 154.992188 493.542969 L 153.652344 493.527344 L 152.964844 492.839844 L 152.847656 490.527344 L 152.277344 488.027344 C 149.386719 486.007812 145.980469 485.003906 142.648438 483.898438 L 140.625 483.183594 C 132.214844 480.738281 121.941406 480.730469 113.375 482.335938 C 102.949219 484.964844 93.621094 490.039062 85.796875 497.40625 C 79.171875 504.082031 74.128906 512.519531 71.476562 521.597656 C 68.964844 532.117188 68.976562 542.207031 71.808594 552.660156 C 74.878906 562.476562 79.839844 570.644531 87.207031 577.773438 C 94.382812 584.359375 103.460938 588.730469 112.859375 591.125 C 123.25 593.035156 134.199219 592.546875 144.164062 589.011719 C 147.972656 587.496094 151.632812 585.671875 155.136719 583.546875 C 156.402344 582.914062 156.402344 582.914062 158.46875 582.914062 C 159.34375 583.832031 159.34375 583.832031 160.199219 585.097656 L 161.125 586.480469 L 162.078125 587.945312 L 163.0625 589.382812 L 163.980469 590.773438 L 164.824219 592.046875 L 165.34375 593.230469 L 164.65625 595.292969 C 163.269531 596.253906 161.835938 597.140625 160.359375 597.957031 L 159.039062 598.691406 C 148.078125 604.640625 136.050781 607.441406 123.59375 607.257812 C 111.378906 606.828125 99.496094 603.6875 88.957031 597.398438 C 77.34375 589.742188 68.386719 580.320312 62.003906 567.960938 C 55.53125 554.945312 54.539062 541.578125 55.300781 527.21875 C 55.746094 523.160156 56.753906 519.394531 58.050781 515.53125 L 58.488281 514.214844 C 62.25 503.140625 68.3125 494.128906 76.621094 485.964844 L 78.210938 484.378906 C 86.828125 476.25 98.230469 470.957031 109.632812 468.085938 C 124.796875 464.65625 140.878906 466.613281 155.027344 472.898438 " fill-opacity="1" fill-rule="nonzero"/><path fill="#ddc496" d="M 771.96875 470.148438 L 884.765625 470.148438 L 884.765625 489.402344 L 870.320312 489.402344 L 870.320312 483.898438 L 835.933594 484.585938 L 835.246094 603.542969 L 821.488281 603.542969 L 820.800781 484.585938 L 787.101562 484.585938 L 786.414062 489.402344 L 771.96875 489.402344 Z M 771.96875 470.148438 " fill-opacity="1" fill-rule="nonzero"/></svg>