<svg xmlns="http://www.w3.org/2000/svg" xmlns:xlink="http://www.w3.org/1999/xlink" width="1920" zoomAndPan="magnify" viewBox="0 0 1440 809.999993" height="1080" preserveAspectRatio="xMidYMid meet" version="1.0"><defs><clipPath id="5714e40509"><path d="M 338.703125 142 L 941 142 L 941 789.605469 L 338.703125 789.605469 Z M 338.703125 142 " clip-rule="nonzero"/></clipPath></defs><path fill="#c5a156" d="M 858.273438 100.96875 C 895.371094 119.53125 926.796875 144.277344 956.007812 173.535156 L 959.433594 176.699219 C 996.515625 211.460938 1023.800781 263.347656 1038.445312 311.511719 C 1055.257812 371.359375 1058.019531 434.355469 1043.484375 494.960938 C 1027.472656 557.46875 996.089844 611.808594 951.375 658.058594 C 908.796875 701.289062 854.898438 731.382812 796.585938 747.550781 C 736.273438 763.632812 674.191406 762.28125 613.972656 746.773438 C 557.632812 731.457031 509.644531 702.066406 467.265625 662.328125 L 464.410156 659.667969 C 422.691406 620.472656 392.417969 569.273438 375.382812 514.71875 C 357.792969 456.09375 355.609375 392.695312 369.617188 333.074219 C 385.890625 267.691406 418.824219 212.5625 465.378906 164.101562 C 470.207031 159.421875 475.25 155.125 480.472656 150.890625 L 483.273438 148.589844 C 499.210938 135.546875 515.601562 123.671875 533.3125 113.144531 L 536.585938 111.195312 C 567.617188 93.003906 602.035156 81.117188 637.097656 73.515625 L 641.292969 72.578125 C 713.335938 57.199219 792.382812 69.375 858.273438 100.96875 M 549.136719 150.5 C 531.402344 161.867188 514.792969 174.316406 499.34375 188.636719 L 496.074219 191.65625 C 457.214844 227.972656 429.480469 273.699219 413.957031 324.515625 C 398.519531 377.042969 396.925781 430.804688 409.238281 484.105469 C 422.824219 539.875 451.019531 586.472656 489.910156 628.355469 L 493.210938 632.039062 C 514.074219 654.25 540.265625 671.253906 567.277344 684.972656 L 570.796875 686.785156 C 617.25 710.421875 668.847656 721.066406 720.910156 718.738281 C 775.757812 715.199219 828.25 699.609375 874.320312 669.109375 C 921.84375 636.5 958.820312 594.691406 983.839844 542.726562 C 1000.507812 506.886719 1011.398438 468.003906 1012.617188 428.3125 L 1012.847656 421.5 C 1013.769531 366.644531 1001.054688 314.113281 975.003906 265.847656 C 949.761719 220.542969 914.273438 182.265625 870.5 154.429688 C 821.46875 125.242188 768.9375 108.105469 711.695312 107.039062 C 654.890625 106.691406 597.742188 120.402344 549.136719 150.5 " fill-opacity="1" fill-rule="nonzero"/><g clip-path="url(#5714e40509)"><path fill="#c5a156" d="M 705.976562 142.632812 L 709.957031 142.632812 C 732.863281 142.703125 754.578125 144.894531 776.738281 150.890625 L 780.488281 151.871094 C 826.085938 164.175781 865.949219 189.828125 899.394531 222.605469 L 903.515625 226.570312 C 914.714844 237.515625 914.714844 237.515625 918.265625 243.363281 L 918.265625 249.027344 C 915.667969 251.574219 915.667969 251.574219 912.074219 254.121094 L 908.203125 256.902344 L 904.113281 259.761719 L 900.023438 262.683594 C 896.679688 265.066406 893.324219 267.433594 889.960938 269.785156 C 882.429688 266.351562 878.503906 261.945312 873.097656 255.632812 C 847.761719 227.132812 812.828125 206.929688 776.785156 194.945312 C 764.808594 191.277344 752.773438 188.6875 740.425781 186.648438 L 734.257812 185.628906 L 729.5625 184.859375 L 729.539062 190.925781 C 729.34375 239.558594 729.136719 288.195312 728.921875 336.828125 C 728.816406 360.347656 728.71875 383.867188 728.625 407.386719 C 728.542969 427.875 728.457031 448.367188 728.359375 468.859375 C 728.308594 479.714844 728.265625 490.574219 728.226562 501.429688 C 728.1875 511.636719 728.140625 521.84375 728.089844 532.046875 C 728.070312 535.804688 728.058594 539.5625 728.046875 543.320312 C 728.03125 548.429688 728.003906 553.535156 727.972656 558.640625 L 727.96875 563.207031 C 727.941406 566.683594 727.820312 570.15625 727.675781 573.628906 L 725.789062 575.515625 L 686.160156 575.515625 L 684.273438 184.859375 C 657.675781 189.320312 657.675781 189.320312 632.144531 196.539062 L 627.113281 198.257812 C 589.066406 211.746094 556.609375 235.972656 530.082031 266.296875 C 503.929688 298.835938 487.308594 336.394531 480.144531 377.511719 C 475.71875 407.410156 476.867188 438.636719 484.25 467.945312 L 485.199219 471.742188 C 495.878906 512.710938 518.324219 548.546875 547.699219 578.714844 C 577.410156 606.925781 613.945312 625.777344 653.527344 635.789062 C 693.085938 644.703125 732.480469 643.578125 771.558594 632.480469 C 803.859375 622.269531 832.40625 607.417969 857.882812 584.953125 L 861.484375 582.097656 C 878.050781 568.929688 893.699219 549.160156 903.167969 530.222656 C 912.359375 531.347656 919.386719 535.363281 927.347656 539.777344 L 931.3125 541.933594 C 934.515625 543.679688 937.714844 545.4375 940.910156 547.207031 C 925.695312 581.609375 895.648438 610.476562 865.878906 632.726562 C 829.367188 659.316406 785.535156 676.558594 740.699219 682.253906 C 689.824219 687.570312 641.082031 680.710938 594.277344 660.089844 C 563.996094 645.820312 538.441406 626.960938 514.441406 603.824219 L 510.761719 600.441406 C 479.847656 571.253906 458.867188 530.816406 446.507812 490.589844 C 443.433594 479.375 441.046875 468.058594 438.960938 456.621094 L 437.964844 451.371094 C 431.464844 407.023438 436.582031 358.71875 452.75 317.070312 C 471.25 271.726562 499.980469 230.6875 538.351562 199.921875 C 567.695312 177.347656 599.890625 161.511719 635.445312 151.363281 L 639.398438 150.222656 C 661.367188 144.269531 683.285156 142.570312 705.976562 142.632812 M 197.417969 1035.996094 C 213.671875 1034.492188 230.324219 1033.074219 246.480469 1035.996094 C 252.0625 1038.742188 253.554688 1040.90625 257.449219 1046.140625 C 259.5 1049.585938 261.433594 1053.097656 263.246094 1056.671875 C 267.167969 1063.863281 272.265625 1070.25 277.144531 1076.808594 C 279.246094 1079.722656 281.34375 1082.640625 283.433594 1085.558594 C 293.160156 1099.074219 303.074219 1112.453125 312.96875 1125.847656 C 318.488281 1133.320312 324.003906 1140.800781 329.511719 1148.285156 L 336.117188 1157.25 L 412.035156 1260.292969 C 417.730469 1268.019531 423.421875 1275.75 429.113281 1283.480469 L 432.671875 1288.316406 L 439.351562 1297.390625 L 442.4375 1301.585938 L 445.101562 1305.210938 C 449.945312 1311.738281 454.839844 1318.238281 459.714844 1324.742188 L 461.601562 1035.996094 L 501.230469 1035.996094 L 501.230469 1402.117188 L 465.378906 1402.117188 C 454.222656 1389.910156 454.222656 1389.910156 451.101562 1383.820312 C 446.117188 1374.710938 440.019531 1366.628906 433.769531 1358.359375 C 431.496094 1355.289062 429.226562 1352.210938 426.957031 1349.136719 L 423.511719 1344.472656 C 417.960938 1336.960938 412.417969 1329.433594 406.878906 1321.910156 L 400.273438 1312.945312 L 307.808594 1187.445312 L 304.503906 1182.957031 L 297.941406 1174.050781 C 292.230469 1166.296875 286.515625 1158.542969 280.796875 1150.792969 L 277.210938 1145.929688 L 270.457031 1136.78125 L 267.351562 1132.570312 L 264.65625 1128.917969 C 260.441406 1123.136719 256.300781 1117.304688 252.140625 1111.484375 L 250.253906 1402.117188 L 210.628906 1402.117188 L 208.742188 1075.628906 L 199.304688 1075.628906 L 197.417969 1073.742188 C 197.265625 1070.929688 197.203125 1068.117188 197.234375 1065.300781 L 197.253906 1060.160156 L 197.300781 1054.753906 L 197.324219 1049.324219 C 197.347656 1044.882812 197.378906 1040.441406 197.417969 1035.996094 " fill-opacity="1" fill-rule="nonzero"/></g></svg>