<svg xmlns="http://www.w3.org/2000/svg" xmlns:xlink="http://www.w3.org/1999/xlink" width="1920" zoomAndPan="magnify" viewBox="0 0 1440 809.999993" height="1080" preserveAspectRatio="xMidYMid meet" version="1.0"><defs><clipPath id="6408a2aa33"><path d="M 17.601562 297.121094 L 1416 297.121094 L 1416 513 L 17.601562 513 Z M 17.601562 297.121094 " clip-rule="nonzero"/></clipPath></defs><g clip-path="url(#6408a2aa33)"><path fill="#c5a157" d="M 111.058594 298.097656 C 59.351562 304.871094 19.59375 348.5625 17.792969 400.59375 C 16.972656 424.429688 22.90625 445.699219 35.707031 464.796875 C 60.601562 501.941406 105.253906 519.832031 148.90625 510.152344 C 165.019531 506.574219 180.707031 498.96875 193.539062 488.507812 C 198.753906 484.253906 207.761719 474.839844 211.742188 469.488281 C 225.980469 450.320312 233.109375 428.660156 233.054688 404.703125 C 233.007812 384.714844 227.964844 366.425781 217.855469 349.597656 C 212.828125 341.222656 207.660156 334.824219 199.871094 327.3125 C 191.410156 319.15625 184.210938 314.019531 174.0625 308.90625 C 154.183594 298.890625 132.886719 295.234375 111.058594 298.097656 M 116.117188 310.011719 C 74.019531 314.214844 39.992188 345.425781 31.585938 387.550781 C 29.699219 397.003906 29.699219 412.988281 31.585938 422.441406 C 42.910156 479.183594 99.449219 513.011719 154.226562 495.820312 C 161.914062 493.40625 175.1875 486.699219 181.347656 482.109375 C 200.816406 467.613281 213.503906 448.027344 218.828125 424.253906 C 220.027344 418.894531 220.183594 416.652344 220.183594 404.996094 C 220.183594 390.207031 219.441406 385.34375 215.414062 373.773438 C 204.015625 341.023438 175.433594 316.804688 141.25 310.9375 C 134.765625 309.824219 122.519531 309.375 116.117188 310.011719 M 114.945312 321.167969 C 100.398438 323.191406 86.046875 328.976562 74.996094 337.269531 C 68.910156 341.839844 59.996094 351.054688 55.875 357.042969 C 38.703125 381.988281 36.273438 415.160156 49.640625 442.164062 C 57.589844 458.234375 71.761719 472.5 87.730469 480.507812 C 125.445312 499.425781 171.980469 486.914062 195.789062 451.449219 C 197.144531 449.429688 198.109375 447.539062 197.933594 447.25 C 197.5625 446.652344 187.597656 441.179688 187.382812 441.457031 C 187.304688 441.558594 186.101562 443.355469 184.710938 445.449219 C 180.945312 451.125 170.675781 461.132812 164.5 465.144531 C 143.070312 479.066406 116.152344 480.65625 93.550781 469.335938 C 61.035156 453.042969 45.789062 416.421875 57.253906 382.132812 C 63.839844 362.421875 78.691406 346.523438 97.957031 338.554688 C 103.464844 336.273438 110.53125 334.355469 115.679688 333.738281 L 119.050781 333.335938 L 119.050781 455.417969 L 131.363281 455.417969 L 131.363281 333.316406 L 134.796875 333.707031 C 139.871094 334.28125 148.0625 336.613281 154 339.171875 C 161.703125 342.492188 168.851562 347.429688 175.835938 354.257812 L 182.007812 360.289062 L 186.855469 356.699219 C 189.519531 354.726562 191.710938 352.921875 191.726562 352.6875 C 191.738281 352.457031 188.914062 349.414062 185.449219 345.929688 C 173.480469 333.894531 158.621094 325.8125 142.03125 322.316406 C 135.511719 320.941406 120.988281 320.324219 114.945312 321.167969 M 326.195312 337.871094 C 302.738281 342.007812 284.347656 358.847656 277.867188 382.132812 C 276.648438 386.511719 276.488281 388.316406 276.523438 397.082031 C 276.558594 405.316406 276.78125 407.832031 277.800781 411.546875 C 284.050781 434.300781 301.675781 451.140625 323.957031 455.652344 C 337.441406 458.378906 350.503906 456.714844 362.652344 450.714844 C 371.734375 446.230469 371.386719 446.933594 367.40625 441.070312 L 364.027344 436.097656 L 360.996094 437.878906 C 352.421875 442.921875 346.25 444.554688 335.976562 444.503906 C 329.15625 444.46875 327.347656 444.246094 322.898438 442.894531 C 313.679688 440.101562 307.054688 435.988281 300.734375 429.128906 C 292.085938 419.75 288.226562 409.703125 288.300781 396.789062 C 288.351562 388.265625 289.519531 383 292.878906 376.1875 C 304.628906 352.367188 332.871094 342.484375 356.902344 353.785156 C 359.683594 355.089844 359.960938 355.402344 360.128906 357.386719 L 360.308594 359.558594 L 372.035156 359.558594 L 372.371094 349.339844 L 369.859375 347.503906 C 366.71875 345.214844 360.15625 341.867188 355.910156 340.394531 C 347.253906 337.386719 334.898438 336.335938 326.195312 337.871094 M 842.855469 338.867188 C 842.414062 339.929688 839.542969 347.527344 836.480469 355.75 C 822.996094 391.9375 807.179688 434.339844 805.824219 437.941406 C 804.554688 441.3125 804.125 441.886719 802.769531 442.042969 L 801.195312 442.226562 L 801.027344 448.253906 L 800.863281 454.285156 L 806.804688 454.117188 L 812.746094 453.953125 L 815.910156 445.449219 C 817.566406 440.996094 819.238281 436.546875 820.921875 432.105469 L 822.769531 427.261719 L 847.96875 427.414062 L 873.171875 427.566406 L 878.402344 441.347656 C 881.28125 448.925781 883.839844 455.332031 884.09375 455.585938 C 884.46875 455.964844 893.085938 453.195312 894.769531 452.15625 C 895.039062 451.988281 894.71875 450.476562 894.054688 448.796875 C 893.023438 446.183594 885.648438 426.609375 856.894531 350.179688 L 852.039062 337.28125 L 847.851562 337.109375 L 843.664062 336.933594 Z M 1036.589844 337.957031 C 1023.226562 340.59375 1013.355469 345.632812 1004.144531 354.53125 C 990.792969 367.425781 984.347656 385.910156 986.671875 404.636719 L 987.320312 409.851562 L 982.371094 415.050781 C 975.84375 421.910156 972.539062 427.433594 972.207031 432.046875 C 971.964844 435.386719 972.019531 435.542969 974.242188 437.761719 C 976.699219 440.222656 979.648438 441.335938 983.703125 441.34375 C 986.949219 441.347656 994.269531 439.832031 998.316406 438.316406 L 1001.484375 437.132812 L 1004.820312 440.28125 C 1011.9375 446.996094 1020.613281 451.847656 1030.433594 454.601562 C 1035.777344 456.101562 1037.160156 456.246094 1045.972656 456.246094 C 1054.789062 456.246094 1056.164062 456.101562 1061.507812 454.601562 C 1078.195312 449.917969 1091.605469 439.066406 1099.304688 424.015625 C 1108.949219 405.160156 1107.601562 381.261719 1095.917969 364.003906 L 1094.164062 361.414062 L 1098.695312 355.503906 C 1104.800781 347.542969 1105.992188 345.328125 1100.785156 351.621094 C 1099.59375 353.0625 1097.449219 355.542969 1096.019531 357.132812 L 1093.417969 360.023438 L 1088.308594 355.054688 C 1082.335938 349.242188 1077.597656 345.917969 1070.859375 342.800781 C 1062.707031 339.035156 1058.136719 338.070312 1047.4375 337.855469 C 1042.277344 337.753906 1037.398438 337.796875 1036.589844 337.957031 M 1357.417969 338.964844 C 1346.921875 341.625 1338.484375 347.242188 1334.691406 354.089844 C 1333.042969 357.0625 1332.960938 357.550781 1332.960938 364.261719 C 1332.960938 371.074219 1333.027344 371.445312 1334.925781 375.300781 C 1339.449219 384.488281 1347.816406 390.136719 1370.1875 399.101562 C 1391.933594 407.8125 1400.367188 413.652344 1403.328125 422.042969 C 1404.316406 424.839844 1404.464844 430.003906 1403.621094 432.222656 C 1402.667969 434.726562 1397.90625 438.988281 1394.050781 440.785156 C 1387.316406 443.921875 1383.804688 444.535156 1372.535156 444.527344 C 1363.03125 444.519531 1361.890625 444.398438 1357.082031 442.917969 C 1351.875 441.3125 1344.941406 438.125 1340.382812 435.25 C 1338.28125 433.921875 1337.941406 433.425781 1337.941406 431.664062 L 1337.941406 429.621094 L 1326.21875 429.621094 L 1326.21875 439.003906 L 1329.722656 441.722656 C 1337.0625 447.425781 1347.117188 452.269531 1356.996094 454.867188 C 1361.597656 456.074219 1363.585938 456.25 1372.535156 456.234375 C 1383.972656 456.214844 1389.214844 455.289062 1397.507812 451.839844 C 1411.671875 445.941406 1418.367188 434.195312 1415.027344 421.097656 C 1411.535156 407.378906 1402.039062 399.679688 1374.960938 388.605469 C 1355.464844 380.628906 1348.613281 376.378906 1345.53125 370.34375 C 1341.164062 361.777344 1346.074219 354.210938 1358.460938 350.421875 C 1362.121094 349.300781 1364.1875 349.078125 1370.773438 349.078125 C 1379.679688 349.082031 1384.902344 350.214844 1391.882812 353.664062 C 1398.105469 356.738281 1398.332031 356.941406 1398.332031 359.40625 L 1398.332031 361.609375 L 1410.054688 361.609375 L 1410.054688 357.035156 C 1410.054688 352.628906 1409.988281 352.394531 1408.152344 350.6875 C 1404.445312 347.246094 1401.277344 345.125 1396.460938 342.875 C 1388.332031 339.074219 1383.601562 338.074219 1372.535156 337.8125 C 1363.851562 337.609375 1362.304688 337.726562 1357.417969 338.964844 M 384.640625 345.746094 L 384.640625 351.574219 L 386.835938 351.753906 L 389.035156 351.9375 L 389.328125 387.699219 L 389.621094 423.464844 L 391.277344 428.15625 C 393.316406 433.933594 395.464844 437.738281 399.046875 441.925781 C 404.839844 448.699219 412.730469 453.601562 421.28125 455.738281 C 426.070312 456.933594 435.644531 457.09375 440.015625 456.050781 C 454.941406 452.492188 466.324219 442.070312 471.339844 427.375 L 472.875 422.878906 L 473.042969 381.398438 L 473.214844 339.917969 L 461.441406 339.917969 L 461.433594 378.171875 C 461.421875 420.300781 461.351562 421.253906 457.847656 428.394531 C 455.542969 433.085938 450.085938 438.632812 445.265625 441.183594 C 433.460938 447.433594 419.570312 445.324219 410.117188 435.851562 C 405.816406 431.542969 402.53125 425.25 401.660156 419.652344 C 401.300781 417.371094 401.0625 400.605469 401.058594 377.878906 L 401.054688 339.917969 L 384.640625 339.917969 Z M 491.929688 345.746094 L 491.929688 351.574219 L 493.996094 351.753906 L 496.058594 351.9375 L 496.191406 402.945312 L 496.328125 453.953125 L 535.460938 454.101562 L 574.597656 454.253906 L 574.597656 437.828125 L 562.285156 437.828125 L 562.285156 441.933594 L 508.328125 441.933594 L 508.484375 423.902344 L 508.640625 405.875 L 538.246094 405.875 L 538.246094 393.855469 L 508.34375 393.855469 L 508.34375 351.644531 L 556.421875 351.644531 L 556.421875 356.335938 L 568.734375 356.335938 L 568.734375 339.917969 L 491.929688 339.917969 Z M 587.496094 345.75 L 587.496094 351.644531 L 591.597656 351.644531 L 591.597656 454.246094 L 603.898438 454.246094 L 604.050781 430.058594 L 604.203125 405.875 L 613.292969 406.019531 C 618.289062 406.097656 623.621094 406.453125 625.140625 406.804688 C 629.910156 407.914062 632.21875 410.617188 644.183594 429.128906 C 650.25 438.507812 656.230469 447.351562 657.480469 448.773438 C 660.96875 452.75 663.570312 453.835938 670.308594 454.132812 L 676.023438 454.382812 L 676.023438 441.933594 L 671.730469 441.933594 C 666.480469 441.933594 667.152344 442.582031 658.695312 429.328125 C 650.691406 416.78125 647.097656 411.890625 643.28125 408.34375 C 641.621094 406.800781 640.261719 405.414062 640.261719 405.265625 C 640.261719 405.117188 640.808594 404.996094 641.476562 404.996094 C 643.832031 404.996094 651.476562 402.035156 655.210938 399.675781 C 675.027344 387.160156 674.933594 358.765625 655.03125 345.902344 C 653.101562 344.652344 649.316406 342.863281 646.621094 341.921875 L 641.726562 340.214844 L 614.609375 340.035156 L 587.496094 339.855469 Z M 688.921875 345.78125 L 688.921875 351.644531 L 693.019531 351.644531 L 693.167969 402.796875 L 693.320312 453.953125 L 699.324219 454.117188 L 705.332031 454.285156 L 705.480469 408.433594 L 705.632812 362.585938 L 739.335938 408.414062 L 773.042969 454.246094 L 783.316406 454.246094 L 783.316406 339.917969 L 771.597656 339.917969 L 771.445312 385.757812 L 771.296875 431.59375 L 737.660156 385.757812 L 704.023438 339.917969 L 688.921875 339.917969 Z M 890.019531 348.125 L 890.019531 356.335938 L 901.746094 356.335938 L 901.746094 351.644531 L 932.230469 351.644531 L 932.230469 453.65625 L 943.957031 453.65625 L 943.957031 351.644531 L 974.445312 351.644531 L 974.445312 356.335938 L 985.582031 356.335938 L 985.582031 339.917969 L 890.019531 339.917969 Z M 1119.257812 345.746094 L 1119.257812 351.574219 L 1121.457031 351.753906 L 1123.65625 351.9375 L 1123.949219 388.285156 L 1124.242188 424.636719 L 1126.164062 429.410156 C 1131.089844 441.628906 1139.972656 450.148438 1152.40625 454.578125 C 1156.695312 456.105469 1157.734375 456.238281 1165.28125 456.226562 C 1172.566406 456.210938 1174.015625 456.035156 1178.179688 454.65625 C 1187.089844 451.703125 1194.953125 445.835938 1199.773438 438.539062 C 1202.941406 433.746094 1204.484375 430.1875 1206.023438 424.101562 C 1207.144531 419.6875 1207.199219 417.5625 1207.199219 379.691406 L 1207.199219 339.917969 L 1195.476562 339.917969 L 1195.460938 380.226562 L 1195.449219 420.53125 L 1194.101562 424.34375 C 1191.273438 432.332031 1186.101562 438.074219 1178.21875 441.980469 C 1173.734375 444.203125 1172.738281 444.464844 1167.804688 444.722656 C 1157.675781 445.253906 1151.023438 442.769531 1144.195312 435.910156 C 1139.566406 431.261719 1137.164062 426.976562 1135.890625 421.121094 C 1135.308594 418.433594 1135.125 408.402344 1135.109375 378.761719 L 1135.085938 339.917969 L 1119.257812 339.917969 Z M 1226.546875 345.742188 L 1226.546875 351.644531 L 1230.652344 351.644531 L 1230.652344 453.65625 L 1242.378906 453.65625 L 1242.378906 405.414062 L 1252.816406 405.714844 C 1261.53125 405.964844 1263.6875 406.207031 1265.863281 407.175781 C 1270.386719 409.199219 1270.878906 409.828125 1284.742188 431.378906 C 1289.824219 439.28125 1295.023438 446.96875 1296.300781 448.464844 C 1299.75 452.515625 1302.570312 453.65625 1309.105469 453.65625 L 1314.492188 453.65625 L 1314.492188 442.519531 L 1310.496094 442.519531 C 1305.507812 442.519531 1305.648438 442.660156 1297.183594 429.328125 C 1288.636719 415.863281 1286.445312 412.863281 1282.285156 408.890625 C 1280.328125 407.027344 1278.726562 405.40625 1278.726562 405.289062 C 1278.726562 405.175781 1280.246094 404.761719 1282.097656 404.375 C 1288.140625 403.109375 1294.839844 399.480469 1299.171875 395.125 C 1307.40625 386.847656 1310.363281 376.195312 1307.511719 365.058594 C 1304.601562 353.679688 1296.144531 345.449219 1283.410156 341.605469 C 1279.191406 340.332031 1278 340.273438 1252.785156 340.0625 L 1226.546875 339.84375 Z M 1041.632812 349.652344 C 1041.152344 350.902344 1041.089844 350.855469 1044.367188 351.730469 C 1046.867188 352.398438 1047.273438 352.363281 1048.664062 351.324219 C 1051.125 349.488281 1050.65625 349.015625 1046.191406 348.835938 C 1042.714844 348.691406 1041.949219 348.828125 1041.632812 349.652344 M 603.910156 372.679688 L 603.910156 393.855469 L 619.953125 393.855469 C 628.777344 393.855469 637.417969 393.59375 639.15625 393.269531 C 643.800781 392.410156 650.382812 388.976562 652.800781 386.152344 C 657.625 380.515625 659.15625 372.683594 656.703125 366.183594 C 654.390625 360.058594 648.585938 355.105469 641.226562 352.980469 C 638.992188 352.335938 633.746094 352.027344 621.058594 351.804688 L 603.910156 351.503906 Z M 1242.378906 373.097656 L 1242.378906 394.546875 L 1259.820312 394.308594 C 1275.496094 394.09375 1277.628906 393.949219 1280.90625 392.859375 C 1291.203125 389.433594 1296.902344 382.375 1296.902344 373.042969 C 1296.902344 363.101562 1290.199219 355.40625 1279.042969 352.542969 C 1276.308594 351.839844 1271.941406 351.644531 1258.964844 351.644531 L 1242.378906 351.644531 Z M 1062.09375 355.585938 C 1059.542969 358.554688 1058.394531 362.476562 1059.90625 363.054688 C 1061.886719 363.816406 1063.308594 363.289062 1064.582031 361.324219 C 1065.304688 360.207031 1066.921875 358.773438 1068.167969 358.136719 L 1070.441406 356.976562 L 1071.476562 359.441406 C 1072.640625 362.207031 1072.628906 363.238281 1071.410156 364.605469 C 1070.945312 365.121094 1070.71875 365.945312 1070.90625 366.429688 C 1071.148438 367.066406 1070.734375 367.417969 1069.429688 367.679688 C 1067.84375 367.996094 1067.691406 368.1875 1068.226562 369.183594 C 1068.5625 369.8125 1068.835938 370.4375 1068.835938 370.574219 C 1068.835938 370.710938 1067.046875 372.011719 1064.855469 373.464844 C 1060.921875 376.082031 1060.878906 376.140625 1061.097656 378.453125 C 1061.261719 380.160156 1061.082031 380.882812 1060.425781 381.136719 C 1059.757812 381.390625 1059.285156 380.738281 1058.566406 378.582031 L 1057.601562 375.683594 L 1054.171875 375.683594 C 1051.382812 375.683594 1050.679688 375.878906 1050.40625 376.738281 C 1050.148438 377.546875 1049.609375 377.738281 1048.070312 377.558594 C 1046.269531 377.347656 1045.90625 377.566406 1044.484375 379.710938 L 1042.90625 382.097656 L 1044.144531 384.199219 C 1044.828125 385.355469 1045.386719 386.957031 1045.386719 387.757812 C 1045.386719 388.636719 1046.253906 390.121094 1047.582031 391.515625 C 1049.523438 393.546875 1050.195312 393.859375 1053.300781 394.1875 L 1056.820312 394.5625 L 1063.542969 388.785156 C 1071.476562 381.96875 1084.667969 369.328125 1084.667969 368.539062 C 1084.667969 367.453125 1080.191406 362.660156 1076.210938 359.484375 C 1072.582031 356.59375 1066.101562 352.785156 1064.894531 352.835938 C 1064.644531 352.847656 1063.382812 354.082031 1062.09375 355.585938 M 846.671875 362.636719 C 845.875 364.875 828.296875 412.0625 827.5625 413.9375 C 827.183594 414.902344 828.378906 414.964844 847.742188 414.964844 C 859.0625 414.964844 868.328125 414.835938 868.328125 414.679688 C 868.328125 414.523438 865.800781 407.730469 862.714844 399.582031 C 859.363281 390.734375 856.015625 381.886719 852.667969 373.042969 C 850.230469 366.59375 848.058594 361.121094 847.84375 360.878906 C 847.632812 360.636719 847.101562 361.429688 846.671875 362.636719 M 1011.328125 363.425781 C 995.488281 379.683594 993.058594 403.835938 1005.324219 423.066406 L 1007.316406 426.1875 L 1014.054688 422.617188 C 1020.554688 419.171875 1035.648438 410.144531 1038.058594 408.257812 C 1039.222656 407.34375 1039.222656 407.335938 1037.902344 406.214844 L 1036.578125 405.089844 L 1040.789062 399.976562 L 1045.003906 394.867188 L 1043.707031 392.421875 C 1042.5 390.148438 1042.070312 389.871094 1037.460938 388.371094 C 1033.53125 387.089844 1031.636719 386.039062 1028.25 383.273438 C 1025.902344 381.355469 1023.789062 379.785156 1023.550781 379.785156 C 1023.3125 379.785156 1023.546875 380.867188 1024.078125 382.1875 C 1024.875 384.183594 1024.902344 384.675781 1024.246094 385.082031 C 1023.125 385.777344 1022.878906 385.519531 1020.453125 381.105469 L 1018.277344 377.148438 L 1019.425781 366.59375 L 1017.359375 363.515625 C 1016.21875 361.824219 1015.050781 360.4375 1014.761719 360.4375 C 1014.472656 360.4375 1012.925781 361.78125 1011.328125 363.425781 M 1078.496094 379.25 C 1074.3125 383.792969 1068.945312 389.25 1066.574219 391.378906 C 1061.675781 395.769531 1061.691406 395.8125 1068.355469 396.539062 C 1071.269531 396.859375 1072.65625 397.378906 1074.847656 398.96875 C 1076.660156 400.289062 1077.636719 401.433594 1077.652344 402.261719 C 1077.660156 402.960938 1077.820312 406.050781 1078.003906 409.128906 L 1078.335938 414.730469 L 1069.730469 423.039062 L 1061.128906 431.34375 L 1059.6875 437.011719 C 1058.898438 440.128906 1058.386719 442.820312 1058.554688 442.988281 C 1059.039062 443.46875 1063.523438 441.964844 1067.371094 440.03125 C 1072.222656 437.585938 1075.570312 435.230469 1079.605469 431.410156 C 1095.148438 416.699219 1098.863281 393.53125 1088.726562 374.511719 C 1087.691406 372.574219 1086.679688 370.992188 1086.472656 370.992188 C 1086.269531 370.992188 1082.675781 374.707031 1078.496094 379.25 M 1039.230469 414.203125 C 1033.621094 418.480469 1020.621094 427.292969 1016.511719 429.597656 C 1014.65625 430.640625 1013.140625 431.730469 1013.140625 432.023438 C 1013.140625 432.863281 1020.09375 437.769531 1024.277344 439.875 C 1031.15625 443.34375 1035.449219 444.363281 1044.570312 444.707031 C 1050.242188 444.921875 1052.964844 444.816406 1053.238281 444.378906 C 1053.457031 444.027344 1052.820312 441.675781 1051.828125 439.160156 C 1050.816406 436.601562 1049.054688 429.738281 1047.835938 423.601562 C 1045.085938 409.777344 1045.0625 409.75 1039.230469 414.203125 M 983.972656 417.453125 C 978.125 425.648438 975.636719 430.980469 976.550781 433.363281 C 977.042969 434.648438 981.101562 435.640625 984.039062 435.195312 C 987.429688 434.683594 995.636719 431.804688 995.945312 431.023438 C 996.082031 430.667969 995.289062 428.820312 994.179688 426.917969 C 991.863281 422.953125 989.421875 417.300781 988.828125 414.523438 C 988.605469 413.476562 988.195312 412.617188 987.921875 412.617188 C 987.648438 412.617188 985.871094 414.792969 983.972656 417.453125 " fill-opacity="1" fill-rule="evenodd"/></g></svg>